<?xml version="1.0" encoding="UTF-8"?>
<svg version="1.1" xmlns="http://www.w3.org/2000/svg" width="1024" height="1024">
<path d="M0 0 C337.92 0 675.84 0 1024 0 C1024 337.92 1024 675.84 1024 1024 C686.08 1024 348.16 1024 0 1024 C0 686.08 0 348.16 0 0 Z " fill="#FDF6F0" transform="translate(0,0)"/>
<path d="M0 0 C1.74655836 2.28927424 3.34595784 4.55353255 4.875 7 C8.40535501 11.9840306 12.51829096 14.45036789 18 17 C16.38108711 18.07927526 14.7495258 19.14392167 13.0625 20.11328125 C8.8800343 22.54513157 5.95932942 24.38981313 4 29 C3.29329272 31.69254991 3.29329272 31.69254991 3 34 C3.54398438 34.25523437 4.08796875 34.51046875 4.6484375 34.7734375 C37.46673672 51.89128792 60.7119455 84.03363728 72.1796875 118.55078125 C80.0992011 144.53487881 79.30553728 174.44131431 70 200 C69.43580169 201.63918659 68.87201646 203.27851541 68.30859375 204.91796875 C60.77268758 226.31702202 51.17255133 246.2733987 40 266 C39.65340332 266.61552734 39.30680664 267.23105469 38.94970703 267.86523438 C31.37969899 281.2673415 23.00456429 294.21829243 14.37890625 306.96044922 C13.41777574 308.3820647 12.45967264 309.80572967 11.50390625 311.23095703 C4.17486892 322.15825925 -3.47462095 332.74074602 -11.55126953 343.12646484 C-13.62768891 345.81174329 -15.65824839 348.52887702 -17.6875 351.25 C-28.78284536 366.07064281 -40.2389386 380.57896457 -52.32348633 394.60913086 C-54.78799354 397.48810889 -57.01227401 400.41945832 -59.125 403.5625 C-62.25886364 407.78873896 -65.90213503 409.80146814 -71 411 C-75.48574464 411.45900643 -79.18053383 411.08964299 -83.09375 408.74609375 C-87.86315442 404.81890559 -91.63413652 399.95302818 -95.46484375 395.13671875 C-98.28808817 391.60286946 -101.26928972 388.21352715 -104.25 384.8125 C-111.03491212 377.03544981 -117.55949941 369.06358136 -124 361 C-124.45552246 360.42991211 -124.91104492 359.85982422 -125.38037109 359.27246094 C-144.08262554 335.79943517 -161.77471454 311.71196703 -178.265625 286.63623047 C-179.70225881 284.45256326 -181.14628431 282.27414179 -182.59375 280.09765625 C-192.73874958 264.64123479 -201.54801673 248.33898764 -210.00585938 231.91210938 C-210.81138118 230.36278552 -211.64385994 228.82749717 -212.484375 227.296875 C-216.77313342 219.33203794 -219.37966729 210.62983025 -222.26953125 202.08666992 C-222.80791979 200.54869971 -223.40883192 199.032278 -224.04296875 197.53125 C-229.37739372 183.42224027 -230.49793456 168.43126707 -230.5 153.5 C-230.50412903 152.79718903 -230.50825806 152.09437805 -230.51251221 151.37026978 C-230.59221637 121.38179702 -219.79370316 90.70231985 -200 68 C-199.32453125 67.21496094 -198.6490625 66.42992187 -197.953125 65.62109375 C-195.67961563 63.0364289 -193.35225146 60.51321424 -191 58 C-190.55092285 57.51160645 -190.1018457 57.02321289 -189.63916016 56.52001953 C-165.68602953 30.63953165 -130.82995709 11.43218016 -95.06616211 9.82299805 C-93.63665003 9.79680436 -92.20701775 9.7766572 -90.77734375 9.76171875 C-89.61589592 9.74702797 -89.61589592 9.74702797 -88.4309845 9.73204041 C-71.6360122 9.56337804 -55.32065104 9.50412254 -39 14 C-38.21334961 14.21430664 -37.42669922 14.42861328 -36.61621094 14.64941406 C-24.48825872 18.07677037 -12.51885214 22.98743191 -2 30 C-5.76159793 22.87276182 -10.65894744 20.48849239 -18 18 C-18 17.34 -18 16.68 -18 16 C-16.046875 15.28385417 -14.09375 14.56770833 -12.140625 13.8515625 C-11.43421875 13.57054687 -10.7278125 13.28953125 -10 13 C-9.319375 12.7525 -8.63875 12.505 -7.9375 12.25 C-5.17331482 10.46665472 -4.23569098 8.27885056 -2.75 5.375 C-2.22921875 4.37210938 -1.7084375 3.36921875 -1.171875 2.3359375 C-0.78515625 1.56507813 -0.3984375 0.79421875 0 0 Z " fill="#F15A5A" transform="translate(589,168)"/>
<path d="M0 0 C0.77472656 0.00451172 1.54945313 0.00902344 2.34765625 0.01367188 C4.23180524 0.02530242 6.11591365 0.04323094 8 0.0625 C8 0.7225 8 1.3825 8 2.0625 C6.99582031 2.29324219 5.99164063 2.52398437 4.95703125 2.76171875 C-10.4284237 6.38716847 -29.97865594 11.00739227 -39.10546875 25.125 C-40.60172798 28.36580603 -40.63449662 30.57276859 -40 34.0625 C-37.32378108 40.69486864 -33.29972775 43.85941663 -27 47.0625 C-16.66243243 50.96828421 -6.28223281 53.12806237 4.65405273 54.52099609 C6.93515899 54.81220115 9.21249227 55.12505997 11.49023438 55.44140625 C19.80605074 56.56699481 28.08296283 57.36585149 36.46800232 57.73931885 C40.69821315 57.93419776 44.57748541 58.46654792 48.6640625 59.53125 C51.75610954 60.23445802 54.85405134 60.60428319 58 61 C63.66595507 61.73035473 69.30471055 62.5460799 74.9375 63.5 C75.62263672 63.61013428 76.30777344 63.72026855 77.01367188 63.83374023 C81.26971053 64.57318051 85.13403617 65.7338248 89.14282227 67.34521484 C91.07246263 68.09048675 93.01270229 68.67852781 95 69.25 C106.22893157 72.98645632 118.01155333 78.16412611 124.5 88.4375 C125.58514918 94.13453317 124.99045893 99.17253034 121.75 104.0625 C109.58531112 118.54563547 87.77700772 126.39269747 71.09228516 134.13232422 C56.15132503 140.84424765 56.15132503 140.84424765 45.0625 152.3125 C43.7468861 156.95584319 43.54671917 160.44201475 45 165.0625 C47.06081883 168.61501618 49.25768567 172.19134283 53 174.0625 C53 174.7225 53 175.3825 53 176.0625 C55.31 176.7225 57.62 177.3825 60 178.0625 C60 179.0525 60 180.0425 60 181.0625 C61.98 181.3925 63.96 181.7225 66 182.0625 C66 182.7225 66 183.3825 66 184.0625 C66.56847656 184.09988281 67.13695312 184.13726562 67.72265625 184.17578125 C73.08435193 184.63228622 77.1669508 185.69739082 82 188.0625 C81.58556473 186.79093723 81.16824702 185.5203141 80.75 184.25 C80.48058594 183.41984375 80.21117187 182.5896875 79.93359375 181.734375 C79.04035332 179.06763228 79.04035332 179.06763228 77.91015625 176.578125 C74.3427508 168.19916558 72.68072047 157.96314051 76.10546875 149.25 C77.56811912 146.92858172 79.09348953 145.03213995 81 143.0625 C81.55300781 142.47984375 82.10601563 141.8971875 82.67578125 141.296875 C88.3890266 135.88570928 94.13410302 133.93198643 101.9375 133.625 C110.16384689 133.86329468 116.39310124 136.82121513 122.42578125 142.34765625 C125.81445968 146.03904541 129 149.94305138 129 155.0625 C129.66 155.0625 130.32 155.0625 131 155.0625 C131.05451714 157.10386395 131.09302485 159.14565856 131.125 161.1875 C131.14820313 162.32445312 131.17140625 163.46140625 131.1953125 164.6328125 C130.53076791 176.30221551 122.08790448 189.91154551 115 199.0625 C124.6726694 204.01090009 124.6726694 204.01090009 135 207.0625 C137.58017295 205.94685062 137.58017295 205.94685062 139 204.0625 C137.28437361 207.88750309 134.88376514 211.18249281 132.4375 214.5625 C131.99349854 215.1797998 131.54949707 215.79709961 131.09204102 216.43310547 C126.80764458 222.36956517 122.41455587 228.22241046 118 234.0625 C116.31062205 236.31109333 114.62403909 238.561777 112.9375 240.8125 C111.625 242.5625 110.3125 244.3125 109 246.0625 C108.14019531 245.61519531 107.28039062 245.16789063 106.39453125 244.70703125 C99.49433581 241.16190443 92.62315097 238.06189291 85.3359375 235.37109375 C81.70482997 233.94671316 78.20012283 232.31394542 74.6875 230.625 C69.62223929 228.19622735 64.53621805 226.08518404 59.25 224.1875 C38.08572147 216.48668759 16.89042608 206.2565648 1 190.0625 C0.29359375 189.4025 -0.4128125 188.7425 -1.140625 188.0625 C-8.21232741 181.40678008 -11.31007611 174.27181504 -12.375 164.6875 C-11.40888887 155.34842574 -6.98083731 148.20830892 0 142.0625 C4.16865259 139.0713383 8.50719264 136.53405576 13 134.0625 C13.96679688 133.51207031 14.93359375 132.96164062 15.9296875 132.39453125 C25.30307787 127.37392394 35.27155784 123.82679006 45.25585938 120.2331543 C62.83183197 114.18473725 62.83183197 114.18473725 75 101.0625 C75.50646546 96.99213569 75.50646546 96.99213569 75 93.0625 C71.69409394 89.87702767 68.07867 87.9243355 63.9375 86 C62.91527344 85.51402344 61.89304687 85.02804687 60.83984375 84.52734375 C52.12896216 80.92665265 42.70167729 79.56834407 33.40234375 78.484375 C31.20918566 78.21267089 29.016156 77.93992849 26.82324219 77.66625977 C25.69704468 77.52745392 24.57084717 77.38864807 23.41052246 77.24563599 C-41.45080975 69.15649248 -41.45080975 69.15649248 -56.515625 52.05859375 C-61.07986385 45.92089362 -63.05114011 40.76210132 -62 33.0625 C-60.41156441 24.7515781 -56.15318693 19.17898024 -49.44921875 14.1484375 C-34.75270755 4.37847956 -17.55364393 -0.19774469 0 0 Z " fill="#FC9DA1" transform="translate(455,282.9375)"/>
<path d="M0 0 C-0.21010263 5.1475144 -1.1535263 8.45409384 -4.765625 12.20703125 C-12.35934022 18.30058944 -21.90817989 21.61468614 -30.89453125 25.1171875 C-31.60505142 25.39438629 -32.31557159 25.67158508 -33.04762268 25.95718384 C-36.63888301 27.35345465 -40.23591183 28.73096367 -43.8449707 30.08056641 C-59.60995431 36.04985679 -76.64722152 43.56859568 -85 59 C-88.00851373 65.8375312 -87.49547023 71.89348038 -84.953125 78.7578125 C-74.80256856 102.63658053 -45.50595173 115.50148914 -23 125 C-19.83843704 126.20298465 -16.66821737 127.36905373 -13.48608398 128.515625 C-6.45243064 131.10193767 0.31967321 134.23897818 7.11157227 137.39770508 C12.27879605 139.79530071 17.46450298 142.03462019 22.78320312 144.07666016 C26.04614318 145.43573938 28.98337375 147.16379272 32 149 C30.43605985 154.09510061 27.29832958 157.61248865 23.9375 161.625 C23.3504126 162.33648193 22.7633252 163.04796387 22.15844727 163.78100586 C20.98057477 165.20783594 19.8001994 166.63260397 18.6171875 168.05517578 C16.54478914 170.54743504 14.48981886 173.05369109 12.4375 175.5625 C11.73496094 176.41070313 11.03242187 177.25890625 10.30859375 178.1328125 C8.5227332 180.35078483 6.80089221 182.58696858 5.09765625 184.8671875 C-5.49483928 198.90136095 -5.49483928 198.90136095 -13 200 C-18.59386929 200.51649184 -22.68068809 199.73303957 -27.0625 196.125 C-30.84901381 192.39882904 -34.16121343 188.29033972 -37.46484375 184.13671875 C-40.28808817 180.60286946 -43.26928972 177.21352715 -46.25 173.8125 C-53.03491212 166.03544981 -59.55949941 158.06358136 -66 150 C-66.45552246 149.42991211 -66.91104492 148.85982422 -67.38037109 148.27246094 C-134.6517415 63.84078909 -134.6517415 63.84078909 -135.0625 49.875 C-129.03256868 39.23394474 -115.01537253 34.37516467 -104.25952148 29.93774414 C-102.60323881 29.25035551 -100.95243866 28.54971659 -99.30493164 27.84155273 C-91.75390459 24.62127097 -84.10618376 21.88410898 -76.3125 19.3125 C-75.15427734 18.92255859 -73.99605469 18.53261719 -72.80273438 18.13085938 C-67.24970815 16.28615731 -61.76902521 14.61626652 -56.03637695 13.44116211 C-52.61239788 12.69938892 -49.28531696 11.65013625 -45.9375 10.625 C-39.60628832 8.72233789 -33.25561741 7.01107098 -26.83007812 5.45849609 C-21.21036564 4.08991437 -15.70429671 2.45752358 -10.18359375 0.734375 C-6.69765766 -0.06974277 -3.56554297 -0.12589559 0 0 Z " fill="#98469E" transform="translate(531,379)"/>
<path d="M0 0 C2.41552878 3.32135207 2.33159584 7.04606082 2.5 11.0625 C3.221875 10.32 3.94375 9.5775 4.6875 8.8125 C12.42014243 1.25169407 18.60237784 -1.52672662 29.43359375 -1.41577148 C38.32390809 -1.09694218 43.88484497 2.0487168 49.9375 8.375 C59.20986315 19.59156833 58.51897072 34.26558984 57.5 48.0625 C55.66389306 60.7359913 48.99757936 74.38034988 38.6875 82.1875 C28.91835726 88.13328025 18.8933308 90.44029814 7.5 89.0625 C3.98235877 88.03725783 0.75370778 86.74183305 -2.5 85.0625 C-2.48839844 86.21105469 -2.47679687 87.35960937 -2.46484375 88.54296875 C-2.41140373 95.82102744 -2.39063974 103.10422269 -2.75 110.375 C-2.81960938 111.85419922 -2.81960938 111.85419922 -2.890625 113.36328125 C-3.66335957 116.78609911 -5.10866324 118.53075447 -7.5 121.0625 C-14.48523407 125.40886787 -22.46893827 125.58559597 -30.5 125.0625 C-32.22455985 123.33794015 -31.63395082 121.13710666 -31.64198399 118.83866119 C-31.63758777 118.10493034 -31.63319155 117.37119949 -31.62866211 116.61523438 C-31.62587974 115.85227806 -31.62309736 115.08932175 -31.62023067 114.30324554 C-31.54939801 105.91969723 -31.01826204 97.57993258 -30.44140625 89.21875 C-30.33112142 87.5541968 -30.22142998 85.8896042 -30.11228943 84.22497559 C-29.8263542 79.88118926 -29.53440399 75.53783229 -29.24047852 71.19458008 C-28.77377676 64.29264373 -28.31351019 57.3902879 -27.85837936 50.48757935 C-27.74743129 48.81390107 -27.63538061 47.14029551 -27.52220535 45.46676636 C-26.97379539 37.35508519 -26.466186 29.25727275 -26.25732422 21.12890625 C-26.22613998 19.95598022 -26.19495575 18.7830542 -26.16282654 17.57458496 C-26.11577283 15.45129503 -26.08572505 13.32752679 -26.07655334 11.20373535 C-26.05765549 10.29023315 -26.03875763 9.37673096 -26.01928711 8.43554688 C-26.01464951 7.65530151 -26.0100119 6.87505615 -26.00523376 6.07116699 C-25.29889002 3.26294343 -23.9265503 2.52648187 -21.5 1.0625 C-14.9043768 -1.06769264 -6.6299616 -2.4862356 0 0 Z " fill="#E74965" transform="translate(400.5,647.9375)"/>
<path d="M0 0 C1.05074707 0.00757324 2.10149414 0.01514648 3.18408203 0.02294922 C18.76390049 0.35076908 31.75194227 4.76621594 43.3125 15.4375 C44.97202559 18.75655118 45.06759757 21.87948024 44.3125 25.4375 C41.65448158 29.91978843 38.65257066 33.54411956 34.3125 36.4375 C30.13862253 36.14035309 27.46876381 34.45062164 24.0625 32.125 C14.2467906 25.68261391 5.20687368 22.20819322 -6.6875 23.4375 C-11.23392257 24.91875381 -14.01605347 26.4303302 -16.6875 30.4375 C-17.29977847 36.66233106 -16.77123986 39.4214594 -12.6875 44.4375 C-10.24280933 45.97260506 -8.0356981 47.19089185 -5.4375 48.375 C-4.73874756 48.70999512 -4.03999512 49.04499023 -3.32006836 49.39013672 C1.6467201 51.74607059 6.695136 53.90437176 11.75 56.0625 C21.90177324 60.41325996 31.4408189 65.85564213 37.1875 75.625 C40.86032156 84.80705389 40.88704687 96.65074985 37.3125 105.875 C30.89872564 118.95336672 21.32512317 126.41510119 7.89453125 131.61328125 C-6.59823569 136.2395654 -24.75791824 137.20266312 -38.6875 130.4375 C-39.53828125 130.07527344 -40.3890625 129.71304688 -41.265625 129.33984375 C-49.97514405 125.39918713 -59.16334744 119.66742337 -62.6875 110.4375 C-62.92247928 103.97556978 -59.75509798 100.09196535 -55.6875 95.4375 C-55.25179688 94.86515625 -54.81609375 94.2928125 -54.3671875 93.703125 C-52.6875 92.4375 -52.6875 92.4375 -49.921875 91.92578125 C-45.59734211 92.60997667 -43.13448891 94.83443064 -39.9375 97.625 C-30.80314144 105.20910943 -22.82925804 109.58463177 -10.8125 109.75 C-10.11769531 109.77900391 -9.42289062 109.80800781 -8.70703125 109.83789062 C-2.56493041 109.91307642 0.74972483 107.74399765 5.1875 103.75 C6.96009714 100.1063281 7.28021388 96.3720209 6.3125 92.4375 C3.06777218 87.7691256 0.20626832 85.45324747 -5 83 C-5.5995752 82.7119751 -6.19915039 82.4239502 -6.81689453 82.12719727 C-10.82390801 80.22574721 -14.8955578 78.48774151 -18.97949219 76.75952148 C-25.49750224 73.99173545 -31.41008639 71.2565467 -36.6875 66.4375 C-37.60402344 65.63892578 -37.60402344 65.63892578 -38.5390625 64.82421875 C-44.7673054 59.05978117 -49.13109414 52.16053174 -49.9609375 43.625 C-50.30642253 32.78208509 -47.64974203 24.61908774 -40.75 16.1875 C-29.79111808 4.84505722 -15.53355357 -0.15740934 0 0 Z " fill="#F1545A" transform="translate(324.6875,602.5625)"/>
<path d="M0 0 C1.10601563 -0.01740234 1.10601563 -0.01740234 2.234375 -0.03515625 C6.72640918 -0.01100553 9.97049615 0.32222852 13.375 3.375 C13.93359375 5.6328125 13.93359375 5.6328125 13.8125 8.5 C13.76996094 9.65113281 13.72742188 10.80226563 13.68359375 11.98828125 C13.24900321 18.65677857 12.65856716 25.31525519 12.09863281 31.97412109 C11.58842879 38.19094772 11.14006428 44.38629582 11.0625 50.625 C11.04574219 51.82640625 11.02898438 53.0278125 11.01171875 54.265625 C11.41850142 57.74733476 12.19075705 59.64469631 14.375 62.375 C19.52929081 63.15300616 23.06322249 62.24951834 27.375 59.375 C30.8767512 55.07284853 32.58861044 50.55552971 34.375 45.375 C35.035 45.375 35.695 45.375 36.375 45.375 C36.46587891 43.46654297 36.46587891 43.46654297 36.55859375 41.51953125 C37.1640625 28.8046875 37.76953125 16.08984375 38.375 3.375 C43.55321573 0.22811005 47.62661132 -0.08623246 53.5 0 C54.69689453 -0.01740234 54.69689453 -0.01740234 55.91796875 -0.03515625 C56.69011719 -0.03128906 57.46226562 -0.02742187 58.2578125 -0.0234375 C58.95277832 -0.02005371 59.64774414 -0.01666992 60.36376953 -0.01318359 C63.14696277 0.523995 64.42450962 1.30557401 66.375 3.375 C66.87670898 6.27783203 66.87670898 6.27783203 66.87109375 9.8828125 C66.8738179 10.54409653 66.87654205 11.20538055 66.87934875 11.88670349 C66.87990546 14.0918932 66.8479909 16.29511326 66.8125 18.5 C66.80277161 19.64165115 66.80277161 19.64165115 66.79284668 20.80636597 C66.67966399 33.87337536 66.01921395 46.90269907 65.125 59.9375 C65.07068817 60.77951965 65.01637634 61.62153931 64.9604187 62.48907471 C64.36371588 71.48147737 63.40771457 80.28624867 61.53125 89.109375 C61.38306824 89.82859634 61.23488647 90.54781769 61.08221436 91.28883362 C58.55340181 102.28359016 51.51725231 111.87099285 42.375 118.375 C41.76269531 118.84292969 41.15039062 119.31085938 40.51953125 119.79296875 C27.93459212 128.64134864 10.17842615 127.79418735 -4.4609375 125.87109375 C-11.44702926 124.29967208 -18.49376211 121.50623789 -23.625 116.375 C-24.21542102 111.45940175 -23.18366899 109.02857588 -20.25 105.125 C-19.31027344 103.84882812 -19.31027344 103.84882812 -18.3515625 102.546875 C-16.625 100.375 -16.625 100.375 -14.625 98.375 C-9.70036409 97.81458624 -6.84388952 99.03674428 -2.5625 101.375 C4.8669063 104.95400623 11.81619702 106.04795185 19.828125 103.63671875 C25.96883061 100.87340123 29.12865979 96.59631873 31.72192383 90.43237305 C32.91569876 86.67164731 32.95197419 82.85642955 33.0625 78.9375 C33.09666016 78.11056641 33.13082031 77.28363281 33.16601562 76.43164062 C33.24768621 74.41321056 33.31303724 72.39413116 33.375 70.375 C32.60929688 71.35339844 32.60929688 71.35339844 31.828125 72.3515625 C25.34828451 80.14115798 18.8503808 85.5275064 8.5546875 86.875 C1.64947829 87.0946488 -5.23572293 87.17542495 -10.625 82.375 C-17.73048563 73.96018893 -18.96548613 66.23501818 -18.875 55.5 C-18.87040771 54.3773877 -18.86581543 53.25477539 -18.86108398 52.09814453 C-18.78172161 44.7894481 -18.22303846 37.8126601 -17.13671875 30.5859375 C-15.90463422 21.60451253 -15.91766548 12.42621544 -15.625 3.375 C-10.21507355 0.67717388 -6.01198117 -0.09559687 0 0 Z " fill="#E34868" transform="translate(689.625,647.625)"/>
<path d="M0 0 C0.95583984 -0.020625 1.91167969 -0.04125 2.89648438 -0.0625 C14.82100931 -0.12752808 23.92554421 3.92045295 32.5625 12.0625 C41.51525841 21.36703674 41.85005853 31.38592878 41.6484375 43.6953125 C41.12745669 56.25482519 36.73406176 66.83301912 28.3125 76.25 C27.71824219 76.91515625 27.12398437 77.5803125 26.51171875 78.265625 C17.85811413 86.7895182 5.55226795 90.30338438 -6.3125 90.5625 C-17.58517261 90.44371525 -26.56681732 87.12081552 -34.6875 79.25 C-44.1983465 69.43722186 -46.26472347 58.72835053 -46.09008789 45.47558594 C-45.88431795 39.33163369 -45.29994383 33.88215076 -42.6875 28.25 C-42.29691406 27.36441406 -41.90632813 26.47882812 -41.50390625 25.56640625 C-35.69888449 13.70969042 -26.89024867 6.0988928 -14.6875 1.25 C-9.8544539 -0.18729706 -5.00328285 0.0264549 0 0 Z " fill="#ED4C60" transform="translate(511.6875,646.75)"/>
<path d="M0 0 C1.19394882 -0.02803711 1.19394882 -0.02803711 2.41201782 -0.05664062 C5.0317083 -0.1076542 7.6481721 -0.1069224 10.26831055 -0.10107422 C12.09906743 -0.11596141 13.92981279 -0.13233187 15.76054382 -0.15011597 C19.59478697 -0.17845304 23.42790523 -0.17949559 27.26220703 -0.16308594 C32.15963775 -0.14561833 37.05210407 -0.20997883 41.94865131 -0.29689217 C45.72976689 -0.35241182 49.50969966 -0.35684645 53.29115868 -0.34698105 C55.09524706 -0.3496888 56.89940018 -0.36967379 58.70308876 -0.40774918 C72.77639246 -0.6701077 72.77639246 -0.6701077 77.89909363 3.39442444 C80.16208983 6.15104165 82.00745432 8.91805678 83.8425293 11.96923828 C85.37149756 13.74348839 85.37149756 13.74348839 86.91674805 15.16845703 C92.10861043 20.11197922 96.81000655 25.03105077 100.8425293 30.96923828 C99.8425293 31.96923828 99.8425293 31.96923828 96.51611328 32.08276367 C95.04027373 32.08260457 93.56442861 32.07691142 92.08862305 32.06689453 C91.31317642 32.06547958 90.5377298 32.06406464 89.73878479 32.06260681 C87.25249435 32.05699173 84.76629269 32.04443675 82.2800293 32.03173828 C80.59838997 32.02672522 78.91674923 32.02216198 77.23510742 32.01806641 C73.10421364 32.00701741 68.97338654 31.98974273 64.8425293 31.96923828 C64.64348999 30.80557739 64.64348999 30.80557739 64.44042969 29.6184082 C63.32053209 24.65637926 59.61260655 21.21551406 55.8425293 17.96923828 C53.04652002 16.72972148 50.91331457 16.35308644 47.8425293 15.96923828 C52.1250822 21.00123795 56.52845305 25.67816943 61.4362793 30.10986328 C62.8425293 31.96923828 62.8425293 31.96923828 62.7487793 34.08642578 C61.47772595 36.72714868 59.45367614 37.52808492 56.92456055 38.83642578 C54.66405479 40.06634448 52.63080351 41.4841439 50.5300293 42.96923828 C43.11807021 47.92308573 36.47070875 50.1282982 27.60424805 50.62158203 C23.0244347 51.19810733 18.99870871 53.03088996 14.8425293 54.96923828 C16.55444826 62.56848832 18.76670361 69.82116098 21.45581055 77.12939453 C23.29493945 82.15441603 24.9299509 87.24668861 26.59594727 92.33105469 C28.53007712 98.1737124 30.70805781 103.87290366 33.05737305 109.56298828 C33.8425293 111.96923828 33.8425293 111.96923828 32.8425293 113.96923828 C31.62997763 112.63974 30.4227613 111.30537564 29.2175293 109.96923828 C28.54463867 109.22673828 27.87174805 108.48423828 27.1784668 107.71923828 C24.7936065 104.91164355 22.60700694 102.00973044 20.41333008 99.05273438 C17.89997383 95.71904115 15.24407524 92.50578624 12.5925293 89.28173828 C8.46562705 84.23919067 4.40978472 79.15742781 0.4675293 73.96923828 C-3.2317374 69.12254153 -7.0738833 64.49350059 -11.1574707 59.96923828 C-34.19969478 33.94110253 -34.19969478 33.94110253 -34.1184082 30.14501953 C-32.65888104 26.84031779 -30.11473098 24.66226284 -27.5324707 22.21923828 C-26.43168109 21.14950492 -25.33271588 20.07789094 -24.2355957 19.00439453 C-23.70385742 18.48506348 -23.17211914 17.96573242 -22.62426758 17.43066406 C-19.16152066 13.98059698 -15.78161432 10.27828467 -12.96619892 6.27560616 C-9.23067133 1.29916124 -6.26700259 -0.06674505 0 0 Z " fill="#FCD5C0" transform="translate(480.157470703125,209.03076171875)"/>
<path d="M0 0 C3.46991148 2.61891419 6.17432251 5.23843006 8.8125 8.6875 C16.64446194 19.70816799 16.64446194 19.70816799 28 26 C33.51556114 26.11611708 38.44410082 25.19882283 43 22 C46.70448136 17.86776807 50.05927576 13.46768641 53.05322266 8.79663086 C58.91735236 0.38591415 58.91735236 0.38591415 64.55078125 -0.65795898 C68.69242604 -0.42161512 72.56830309 0.18116432 76.625 1 C78.06395597 1.24335944 79.50375455 1.4817868 80.94433594 1.71533203 C84.98236809 2.391265 88.98789311 3.18439279 93 4 C93.94004883 4.17756836 94.88009766 4.35513672 95.84863281 4.53808594 C104.76899129 6.24156302 113.32526962 9.02071991 121 14 C123.1610211 17.24153166 123.64247553 18.23692901 123 22 C115.65038848 30.10991616 102.8304608 32.26441871 92.625 34.25 C91.40039062 34.50523437 90.17578125 34.76046875 88.9140625 35.0234375 C75.88783272 37.64524222 63.0161323 38.16081396 49.7421875 38.16796875 C48.3041277 38.17119672 46.86606821 38.17456183 45.42800903 38.17805481 C42.43116497 38.18399379 39.43434952 38.18590023 36.4375 38.18530273 C33.4065146 38.18522164 30.37568088 38.19214544 27.34472656 38.20581055 C11.13129962 38.27786595 -4.90969983 38.27667236 -21 36 C-22.18062012 35.8548999 -23.36124023 35.7097998 -24.57763672 35.56030273 C-36.14098968 34.11606586 -52.60837275 31.86407812 -61 23 C-62.375 19.9375 -62.375 19.9375 -62 17 C-53.04576418 6.44029122 -35.21693607 3.41534958 -22 2 C-14.66720622 1.60668811 -7.33525797 1.72645337 0 2 C0 1.34 0 0.68 0 0 Z " fill="#F1DCD6" transform="translate(484,552)"/>
<path d="M0 0 C0.77472656 0.00451172 1.54945313 0.00902344 2.34765625 0.01367188 C4.23180524 0.02530242 6.11591365 0.04323094 8 0.0625 C8 0.7225 8 1.3825 8 2.0625 C6.99582031 2.29324219 5.99164063 2.52398437 4.95703125 2.76171875 C-10.4284237 6.38716847 -29.97865594 11.00739227 -39.10546875 25.125 C-40.60172798 28.36580603 -40.63449662 30.57276859 -40 34.0625 C-37.32378108 40.69486864 -33.29972775 43.85941663 -27 47.0625 C-16.66243243 50.96828421 -6.28223281 53.12806237 4.65405273 54.52099609 C6.93515899 54.81220115 9.21249227 55.12505997 11.49023438 55.44140625 C19.80605074 56.56699481 28.08296283 57.36585149 36.46800232 57.73931885 C40.69821315 57.93419776 44.57748541 58.46654792 48.6640625 59.53125 C51.75610954 60.23445802 54.85405134 60.60428319 58 61 C63.66595507 61.73035473 69.30471055 62.5460799 74.9375 63.5 C75.62263672 63.61013428 76.30777344 63.72026855 77.01367188 63.83374023 C81.26971053 64.57318051 85.13403617 65.7338248 89.14282227 67.34521484 C91.07248533 68.09049552 93.01257892 68.67885516 95 69.25 C99.59937886 70.76972483 103.90514361 72.81475823 108.25 74.9375 C108.93578125 75.26516357 109.6215625 75.59282715 110.328125 75.93041992 C114.58629471 78.05794539 118.05342942 80.20838568 121 84.0625 C120.62207031 86.72216797 120.62207031 86.72216797 120 89.0625 C85.41921397 95.0625 85.41921397 95.0625 76 95.0625 C75.4225 94.31226563 74.845 93.56203125 74.25 92.7890625 C71.57903971 89.55237798 68.7502264 88.10084477 65 86.4375 C64.40316406 86.15132813 63.80632812 85.86515625 63.19140625 85.5703125 C53.79242273 81.27140112 43.59023724 79.67191832 33.40234375 78.484375 C31.20918566 78.21267089 29.016156 77.93992849 26.82324219 77.66625977 C25.69704468 77.52745392 24.57084717 77.38864807 23.41052246 77.24563599 C-41.45080975 69.15649248 -41.45080975 69.15649248 -56.515625 52.05859375 C-61.07986385 45.92089362 -63.05114011 40.76210132 -62 33.0625 C-60.41156441 24.7515781 -56.15318693 19.17898024 -49.44921875 14.1484375 C-34.75270755 4.37847956 -17.55364393 -0.19774469 0 0 Z " fill="#FDE3AF" transform="translate(455,282.9375)"/>
<path d="M0 0 C2.67964082 0.99785788 5.17643854 2.03455335 7.75 3.25 C9.184356 3.90352987 10.6192502 4.55587982 12.0546875 5.20703125 C12.74014648 5.5210791 13.42560547 5.83512695 14.13183594 6.15869141 C16.35300646 7.15897285 18.60185607 8.06229999 20.875 8.9375 C26.46073224 11.12445618 31.91048294 13.61312197 37.3815918 16.0690918 C41.45196835 17.88997101 45.52612344 19.64407826 49.6875 21.25 C53.71588049 22.81387735 57.3100085 24.75391822 61 27 C59.43605985 32.09510061 56.29832958 35.61248865 52.9375 39.625 C52.3504126 40.33648193 51.7633252 41.04796387 51.15844727 41.78100586 C49.98057477 43.20783594 48.8001994 44.63260397 47.6171875 46.05517578 C45.54478914 48.54743504 43.48981886 51.05369109 41.4375 53.5625 C40.73496094 54.41070313 40.03242187 55.25890625 39.30859375 56.1328125 C37.5227332 58.35078483 35.80089221 60.58696858 34.09765625 62.8671875 C23.50516072 76.90136095 23.50516072 76.90136095 16 78 C10.40613071 78.51649184 6.31931191 77.73303957 1.9375 74.125 C-1.84901381 70.39882904 -5.16121343 66.29033972 -8.46484375 62.13671875 C-11.28814462 58.6027988 -14.27050029 55.21466777 -17.25 51.8125 C-18.91925476 49.88628388 -20.58495747 47.95706736 -22.24902344 46.02636719 C-23.45108179 44.63525114 -24.65771554 43.24807952 -25.86816406 41.86425781 C-27.72174112 39.73671536 -29.55033636 37.58985324 -31.375 35.4375 C-31.95282227 34.78305908 -32.53064453 34.12861816 -33.12597656 33.4543457 C-35.65548193 30.42883597 -36.95648443 28.85863645 -37.16015625 24.83984375 C-35.71618171 21.30526634 -33.96043653 19.59469053 -31.0625 17.125 C-30.16660156 16.34382812 -29.27070313 15.56265625 -28.34765625 14.7578125 C-26 13 -26 13 -24 13 C-24 12.34 -24 11.68 -24 11 C-21.96176988 9.59442696 -19.94223094 8.31460719 -17.8125 7.0625 C-17.23435547 6.71509766 -16.65621094 6.36769531 -16.06054688 6.00976562 C-14.37759157 4.99999244 -12.68886592 3.99985615 -11 3 C-10.15824219 2.42121094 -9.31648438 1.84242188 -8.44921875 1.24609375 C-5.2964536 -0.35794466 -3.51324182 -0.43266525 0 0 Z " fill="#6D3195" transform="translate(502,501)"/>
<path d="M0 0 C1.39663239 8.10947841 -0.69063699 16.99184228 -2 25 C-1.15236084 24.98428955 -1.15236084 24.98428955 -0.28759766 24.96826172 C2.26655653 24.92675212 4.82063982 24.9006904 7.375 24.875 C8.26445313 24.85824219 9.15390625 24.84148438 10.0703125 24.82421875 C10.92109375 24.81777344 11.771875 24.81132813 12.6484375 24.8046875 C13.82672119 24.78897705 13.82672119 24.78897705 15.02880859 24.77294922 C17 25 17 25 19 27 C19.64290166 31.81230798 19.49775712 36.7538129 17 41 C15.17209025 42.93515956 13.74860205 43.90666285 11.08105469 44.23925781 C8.79698537 44.29526486 6.53350577 44.26134471 4.25 44.1875 C3.45722656 44.17396484 2.66445313 44.16042969 1.84765625 44.14648438 C-0.10185564 44.11125223 -2.05101626 44.05744821 -4 44 C-3.98839844 45.24394531 -3.97679687 46.48789062 -3.96484375 47.76953125 C-3.91384928 55.69120269 -3.92651196 63.48589919 -4.765625 71.37109375 C-5.05019539 74.563025 -5.17903897 77.73360967 -5.25 80.9375 C-5.28867187 82.52884766 -5.28867187 82.52884766 -5.328125 84.15234375 C-4.9527544 87.41002431 -4.38516686 88.76324352 -2 91 C2.23303435 92.00673289 6.04008796 91.53328447 9.8125 89.4375 C10.534375 88.963125 11.25625 88.48875 12 88 C14.20543633 88.24504848 15.42419664 88.42419664 17 90 C17.51709465 95.45068619 17.65777234 100.39846734 15.5625 105.5 C12.10736813 108.87086036 8.47498667 110.33980258 4 112 C3.21109375 112.35964844 2.4221875 112.71929688 1.609375 113.08984375 C-5.08436531 115.4246364 -13.76797827 114.9893805 -20.23046875 112.0234375 C-28.37925469 107.31045314 -31.78954213 100.93915889 -34.6171875 92.0625 C-37.45625813 76.7662827 -33.68681161 59.31289969 -32 44 C-32.69867187 44.02320313 -33.39734375 44.04640625 -34.1171875 44.0703125 C-35.02726563 44.08835937 -35.93734375 44.10640625 -36.875 44.125 C-37.77992188 44.14820313 -38.68484375 44.17140625 -39.6171875 44.1953125 C-42 44 -42 44 -44 42 C-44.77830548 36.98607415 -45.05821573 31.62013262 -42.0625 27.3125 C-37.96528039 24.21868111 -34.9584286 24.41665546 -30 25 C-30.01160156 24.154375 -30.02320313 23.30875 -30.03515625 22.4375 C-30.17146433 5.30162703 -30.17146433 5.30162703 -27.3125 2.125 C-19.93284056 -1.46510459 -7.2267122 -4.81780813 0 0 Z " fill="#EF515D" transform="translate(599,623)"/>
<path d="M0 0 C1.26851857 8.5874533 -0.47317073 17.92939728 -1.375 26.5 C-2.76837327 40.26877676 -3.6626763 54.03491899 -4.35302734 67.85546875 C-4.42531503 69.29557999 -4.49773965 70.73568436 -4.5703125 72.17578125 C-4.62179443 73.20519333 -4.62179443 73.20519333 -4.67431641 74.25540161 C-4.92520801 79.07385401 -5.33144936 83.86350171 -5.79931641 88.66479492 C-6.08215431 91.95596835 -6.13244106 95.19616934 -6.125 98.5 C-6.12757813 99.6653125 -6.13015625 100.830625 -6.1328125 102.03125 C-6.13306853 105.05664957 -6.13306853 105.05664957 -5 108 C-4.28972656 108.06058594 -3.57945312 108.12117187 -2.84765625 108.18359375 C-1.46900391 108.30927734 -1.46900391 108.30927734 -0.0625 108.4375 C0.85402344 108.51871094 1.77054688 108.59992188 2.71484375 108.68359375 C5 109 5 109 6 110 C6.53850832 116.07893047 6.89638518 122.00775649 3 127 C-2.31173964 131.34473063 -8.22787485 131.61726691 -14.87890625 131.37890625 C-21.96860684 130.51820418 -26.19983557 127.38873751 -30.67578125 121.9765625 C-34.94320967 115.60689058 -35.45219215 110.8304878 -35.33203125 103.33984375 C-35.32250931 102.22826401 -35.31298737 101.11668427 -35.30317688 99.97142029 C-35.0563021 83.40268251 -34.0205832 66.85206381 -33.02856445 50.31469727 C-32.73803061 45.46257538 -32.46777977 40.60953829 -32.2021513 35.75599766 C-31.99299728 31.98857759 -31.77112357 28.22198758 -31.54554176 24.45551872 C-31.44019753 22.66359133 -31.33935951 20.87139299 -31.24316978 19.07895088 C-31.10860846 16.59793236 -30.95639829 14.11861195 -30.79956055 11.63891602 C-30.76359268 10.90508698 -30.72762482 10.17125793 -30.69056702 9.41519165 C-30.49000342 6.49175973 -30.34759033 4.46249106 -28.5584259 2.08189392 C-21.40235213 -2.88601164 -7.35090855 -4.9006057 0 0 Z " fill="#F2575C" transform="translate(659,606)"/>
<path d="M0 0 C6.22458115 4.25032006 10.60812282 9.82436847 13 17 C15.15576441 35.94245444 0.69304915 55.50450257 -10 70 C-10.70640625 70.97582031 -11.4128125 71.95164062 -12.140625 72.95703125 C-12.75421875 73.63121094 -13.3678125 74.30539062 -14 75 C-14.99 75 -15.98 75 -17 75 C-18.27099609 73.67407227 -18.27099609 73.67407227 -19.5234375 71.81640625 C-20.21518066 70.80296143 -20.21518066 70.80296143 -20.92089844 69.76904297 C-21.40075195 69.04088379 -21.88060547 68.31272461 -22.375 67.5625 C-22.87032227 66.82402832 -23.36564453 66.08555664 -23.87597656 65.32470703 C-27.18707269 60.34491487 -30.30626448 55.34301995 -33 50 C-33.58652344 48.86433594 -34.17304687 47.72867188 -34.77734375 46.55859375 C-40.45604345 35.44771604 -43.40442881 26.49071644 -42 14 C-40.58338496 10.34503237 -38.71319857 7.80303958 -36 5 C-35.17048828 4.12601562 -35.17048828 4.12601562 -34.32421875 3.234375 C-24.8148724 -5.77217833 -11.12483797 -6.90211527 0 0 Z " fill="#FCD18B" transform="translate(572,421)"/>
<path d="M0 0 C0.33 0 0.66 0 1 0 C1.05451714 2.04136395 1.09302485 4.08315856 1.125 6.125 C1.14820313 7.26195312 1.17140625 8.39890625 1.1953125 9.5703125 C0.53076791 21.23971551 -7.91209552 34.84904551 -15 44 C-5.3273306 48.94840009 -5.3273306 48.94840009 5 52 C7.58017295 50.88435062 7.58017295 50.88435062 9 49 C7.28437361 52.82500309 4.88376514 56.11999281 2.4375 59.5 C1.99349854 60.1172998 1.54949707 60.73459961 1.09204102 61.37060547 C-3.19235542 67.30706517 -7.58544413 73.15991046 -12 79 C-13.68937795 81.24859333 -15.37596091 83.499277 -17.0625 85.75 C-18.375 87.5 -19.6875 89.25 -21 91 C-21.85980469 90.55269531 -22.71960938 90.10539063 -23.60546875 89.64453125 C-30.50566419 86.09940443 -37.37684903 82.99939291 -44.6640625 80.30859375 C-48.29515987 78.88421715 -51.79993129 77.2515516 -55.3125 75.5625 C-61.25508736 72.71114135 -67.28295281 70.3217516 -73.47583008 68.07202148 C-78.18671976 66.34780884 -82.59265365 64.38731261 -87 62 C-85.625 60.5 -85.625 60.5 -84 59 C-83.34 59 -82.68 59 -82 59 C-82 58.34 -82 57.68 -82 57 C-81.45214844 56.79246094 -80.90429688 56.58492188 -80.33984375 56.37109375 C-74.34187764 54.04017684 -68.51836511 51.40474573 -62.70458984 48.65380859 C-56.88068818 45.91149316 -50.96839429 43.41180924 -45 41 C-45 40.01 -45 39.02 -45 38 C-47.94236782 35.78831775 -47.94236782 35.78831775 -51 34 C-50.01 33.67 -49.02 33.34 -48 33 C-47.67 32.01 -47.34 31.02 -47 30 C-46.484375 30.928125 -45.96875 31.85625 -45.4375 32.8125 C-41.11830401 40.35201526 -36.4819805 47.6401237 -31.06640625 54.44140625 C-30 56 -30 56 -30 58 C-26.69066977 56.60879958 -25.07966921 55.15066 -23.046875 52.2109375 C-22.24721313 51.05754883 -22.24721313 51.05754883 -21.43139648 49.88085938 C-20.87653564 49.05392578 -20.3216748 48.22699219 -19.75 47.375 C-19.17515869 46.52486328 -18.60031738 45.67472656 -18.00805664 44.79882812 C-9.07535676 31.34144793 -0.71304745 16.43574379 0 0 Z " fill="#E468B4" transform="translate(585,438)"/>
<path d="M0 0 C4.90091195 -0.27227289 6.99041062 0.1176818 10.7578125 3.41015625 C18 11.00178122 18 11.00178122 18 15 C29.22 15.33 40.44 15.66 52 16 C49.1664556 20.9587027 46.6279889 24.88882747 42.9375 29.0625 C39.01075988 33.60378553 35.19347978 38.20427582 31.5 42.9375 C31.04608887 43.51902832 30.59217773 44.10055664 30.12451172 44.69970703 C29.20585626 45.87869702 28.28788676 47.05822182 27.37060547 48.23828125 C14.54996149 64.71739899 1.67656901 81.21934345 -12 97 C-13.6852084 92.92320841 -12.16939007 90.16924407 -10.5625 86.25 C-9.85287109 84.49429688 -9.85287109 84.49429688 -9.12890625 82.703125 C-8.75636719 81.81109375 -8.38382813 80.9190625 -8 80 C-7.34 80 -6.68 80 -6 80 C-5.56067201 78.41717291 -5.12368731 76.83369546 -4.6875 75.25 C-4.44386719 74.36828125 -4.20023438 73.4865625 -3.94921875 72.578125 C-3.3999769 70.50773186 -2.86715641 68.43254272 -2.37890625 66.34692383 C-0.64874767 59.04781732 1.65185698 52.17109029 4.375 45.1875 C5.17220484 43.09306835 5.96778022 40.99801575 6.76171875 38.90234375 C7.14376465 37.89671387 7.52581055 36.89108398 7.91943359 35.85498047 C9.37892792 31.99882895 10.81896101 28.13940167 12.1875 24.25 C12.59355469 23.12078125 12.99960937 21.9915625 13.41796875 20.828125 C14.18668994 18.1288259 14.18668994 18.1288259 13.49609375 15.9921875 C11.24113261 12.98949774 8.58808347 10.46218632 5.875 7.875 C3.86216509 5.95428568 1.92167788 4.01570493 0 2 C0 1.34 0 0.68 0 0 Z " fill="#FC8649" transform="translate(528,225)"/>
<path d="M0 0 C11.88 0 23.76 0 36 0 C36.66 2.97 37.32 5.94 38 9 C38.66 9 39.32 9 40 9 C43.14616892 15.71301599 45.68083998 22.54601027 48.0625 29.5625 C48.73996658 31.54328325 49.41833538 33.52375818 50.09765625 35.50390625 C50.58298828 36.91893433 50.58298828 36.91893433 51.078125 38.36254883 C51.87629604 40.64608742 52.70633566 42.91112599 53.56640625 45.171875 C55.13591066 49.30139904 56.50638755 53.48792208 57.875 57.6875 C60.08557669 64.43461924 62.50440236 71.02901122 65.21484375 77.59375 C66 80 66 80 65 82 C63.78744833 80.67050172 62.58023201 79.33613736 61.375 78 C60.70210938 77.2575 60.02921875 76.515 59.3359375 75.75 C56.9510772 72.94240527 54.76447764 70.04049216 52.57080078 67.08349609 C50.05744453 63.74980286 47.40154594 60.53654796 44.75 57.3125 C40.62309775 52.26995239 36.56725542 47.18818953 32.625 42 C28.9257333 37.15330324 25.08358741 32.52426231 21 28 C16.69135352 23.13302035 12.45513267 18.20644417 8.25 13.25 C7.77788086 12.69481689 7.30576172 12.13963379 6.81933594 11.56762695 C0 3.50896567 0 3.50896567 0 0 Z " fill="#67DAE5" transform="translate(448,241)"/>
<path d="M0 0 C-0.56509785 4.82221922 -1.55936612 9.07251546 -3.21484375 13.6328125 C-3.65376953 14.85097656 -4.09269531 16.06914062 -4.54492188 17.32421875 C-5.00903637 18.59117449 -5.47322976 19.85810132 -5.9375 21.125 C-6.39838409 22.39952363 -6.85867545 23.67426176 -7.31835938 24.94921875 C-10.61803984 34.06078149 -10.61803984 34.06078149 -12.10009766 37.70507812 C-13.21540401 40.54932112 -13.80931005 43.38666138 -14.4375 46.375 C-15.52049817 51.24296625 -16.81520032 55.52636255 -19 60 C-19.66 60 -20.32 60 -21 60 C-22.83402304 65.96668828 -24.53889252 71.93078433 -26 78 C-29.00222991 74.53725105 -30.36747568 70.71330246 -31.8125 66.4375 C-32.06821777 65.69878662 -32.32393555 64.96007324 -32.58740234 64.19897461 C-34.81126925 57.71145083 -36.85532344 51.16875782 -38.88110352 44.6171875 C-40.4151602 39.70006519 -42.17907713 34.96755527 -44.1875 30.22265625 C-45.63448848 26.26430796 -46.32888267 22.15033083 -47 18 C-46.37351562 17.79503906 -45.74703125 17.59007812 -45.1015625 17.37890625 C-44.28429687 17.10949219 -43.46703125 16.84007812 -42.625 16.5625 C-41.81289063 16.29566406 -41.00078125 16.02882813 -40.1640625 15.75390625 C-37.98968201 15.04820271 -37.98968201 15.04820271 -36 14 C-34.4174106 13.92087053 -32.83380237 13.86170096 -31.25 13.8125 C-20.78461162 12.91978314 -11.52388795 8.13916585 -3.671875 1.3203125 C-2 0 -2 0 0 0 Z " fill="#F17A79" transform="translate(541,245)"/>
<path d="M0 0 C4.54536573 0.23175384 7.22821078 1.34583858 10.625 4.5 C13.43745625 9.84299564 14.143991 14.19309892 14.0625 20.1875 C14.05420166 20.97624512 14.04590332 21.76499023 14.03735352 22.57763672 C13.75328831 32.49464627 11.416195 40.78552756 4.34375 48.0078125 C0.41379974 51.41972386 -3.08441972 51.72917296 -8.21484375 51.9609375 C-11.64256422 51.22952518 -13.6902452 49.72758792 -16.375 47.5 C-17.07543945 44.28295898 -17.07543945 44.28295898 -16.98828125 40.49609375 C-16.97419724 39.81756851 -16.96011322 39.13904327 -16.94560242 38.43995667 C-16.90718552 37.00302466 -16.85325386 35.56643515 -16.78491211 34.13061523 C-16.6888382 31.96762788 -16.66020409 29.81133824 -16.63867188 27.64648438 C-16.36257997 17.14697383 -13.48886811 10.0214996 -6.2800293 2.23803711 C-4.02082678 0.17687311 -3.01570227 -0.04232565 0 0 Z " fill="#FDF1EB" transform="translate(416.375,666.5)"/>
<path d="M0 0 C4.45228436 2.22614218 6.86733733 4.51018386 9 9 C12.03925471 19.4429431 10.89751318 31.59862618 6.48046875 41.41015625 C4.0395456 45.68016165 1.89292482 48.11162151 -2.984375 49.609375 C-6.25789766 50.22469881 -8.64626107 50.13667186 -11.75 48.9375 C-17.52672226 43.96310028 -19.67920368 37.85372203 -20.30078125 30.38671875 C-20.3362371 19.1944894 -19.28092863 10.73711435 -12 2 C-7.95308865 -0.6979409 -4.75253951 -0.65804393 0 0 Z " fill="#FDF2EC" transform="translate(515,667)"/>
<path d="M0 0 C5.67384593 -0.27353515 11.34380036 -0.47222515 17.02270508 -0.60424805 C18.95046877 -0.65930856 20.87777838 -0.73418957 22.80395508 -0.82983398 C38.81770198 -1.60462588 38.81770198 -1.60462588 44.12475586 2.29760742 C46.38145564 5.08917972 48.1958166 7.90241527 50 11 C51.52636685 12.78588591 51.52636685 12.78588591 53.07421875 14.19921875 C58.26608114 19.14274093 62.96747725 24.06181249 67 30 C66 31 66 31 62.67358398 31.11352539 C61.19774444 31.11336629 59.72189931 31.10767314 58.24609375 31.09765625 C57.47064713 31.0962413 56.6952005 31.09482635 55.89625549 31.09336853 C53.40996506 31.08775345 50.9237634 31.07519846 48.4375 31.0625 C46.75586067 31.05748694 45.07421994 31.0529237 43.39257812 31.04882812 C39.26168434 31.03777913 35.13085724 31.02050445 31 31 C30.87020752 30.22422607 30.74041504 29.44845215 30.60668945 28.64916992 C29.8474215 25.33375078 28.47109801 23.80793456 26.1875 21.3125 C25.50042969 20.54550781 24.81335938 19.77851563 24.10546875 18.98828125 C22.1276774 17.12057105 20.48934423 16.04608398 18 15 C18 14.01 18 13.02 18 12 C15.78472394 10.20504957 15.78472394 10.20504957 12.9375 8.5625 C11.93976562 7.9540625 10.94203125 7.345625 9.9140625 6.71875 C6.62584558 4.77931911 3.33719202 2.85399557 0 1 C0 0.67 0 0.34 0 0 Z " fill="#FDE5AA" transform="translate(514,210)"/>
<path d="M0 0 C5.85322174 -0.09922655 11.70594877 -0.17163763 17.55981445 -0.21972656 C19.54915908 -0.23978337 21.53844518 -0.26703585 23.52758789 -0.30175781 C26.39484131 -0.35053771 29.26131211 -0.37302827 32.12890625 -0.390625 C33.45276085 -0.42159271 33.45276085 -0.42159271 34.80335999 -0.45318604 C40.7647147 -0.45532929 44.06469037 0.64129094 49 4 C50.09183594 4.67160156 51.18367187 5.34320313 52.30859375 6.03515625 C53.85740234 7.03869141 53.85740234 7.03869141 55.4375 8.0625 C56.48808594 8.73410156 57.53867187 9.40570313 58.62109375 10.09765625 C59.40613281 10.72542969 60.19117188 11.35320312 61 12 C61 12.99 61 13.98 61 15 C59.95658447 14.9779248 58.91316895 14.95584961 57.83813477 14.93310547 C53.92936429 14.86384613 50.02279566 14.86132501 46.11352539 14.87792969 C44.42883916 14.87599493 42.74407051 14.85647735 41.05981445 14.81835938 C30.96330562 14.39245159 30.96330562 14.39245159 21.93701172 18.16113281 C19.66454405 20.66890565 17.80922221 23.1457605 16 26 C14.50292969 28.29931641 14.50292969 28.29931641 13 30 C10.28770497 30.29642569 8.00260268 30.38061189 5.3125 30.25 C4.2596582 30.22292969 4.2596582 30.22292969 3.18554688 30.1953125 C1.45644564 30.14826213 -0.27195205 30.07651873 -2 30 C-1.34 25.71 -0.68 21.42 0 17 C2.26999825 16.49622232 4.54103003 15.99709981 6.8125 15.5 C8.07707031 15.2215625 9.34164063 14.943125 10.64453125 14.65625 C14 14 14 14 17 14 C17 13.34 17 12.68 17 12 C16.27296875 11.73058594 15.5459375 11.46117187 14.796875 11.18359375 C12.05588448 10.02364944 9.73134626 8.69868973 7.25 7.0625 C6.47140625 6.55847656 5.6928125 6.05445313 4.890625 5.53515625 C3 4 3 4 2 1 C1.34 0.67 0.68 0.34 0 0 Z " fill="#EF5EA3" transform="translate(472,210)"/>
<path d="M0 0 C19.47 0 38.94 0 59 0 C57.78033019 3.65900942 56.36266839 4.08814878 53.08203125 5.83203125 C50.83860635 7.0905379 48.78922008 8.51797003 46.6875 10 C39.26279332 14.96236741 32.62746156 17.12467116 23.7578125 17.66796875 C19.26531349 18.20885036 14.81552016 19.52697767 11 22 C10.16580009 24.05491176 10.16580009 24.05491176 10 26 C9.73445313 25.25234375 9.46890625 24.5046875 9.1953125 23.734375 C8.84210938 22.74953125 8.48890625 21.7646875 8.125 20.75 C7.77695312 19.77546875 7.42890625 18.8009375 7.0703125 17.796875 C6.08490429 15.06124102 6.08490429 15.06124102 4.8671875 12.828125 C4 11 4 11 4 8 C3.34 8 2.68 8 2 8 C1.34 5.36 0.68 2.72 0 0 Z " fill="#F2A7A0" transform="translate(484,242)"/>
<path d="M0 0 C0.99 0 1.98 0 3 0 C4.12060865 1.15456648 5.23679202 2.31381636 6.328125 3.49609375 C9.20342947 6.08252418 12.61767713 7.80306516 15.98828125 9.66796875 C16.65214844 10.10753906 17.31601562 10.54710937 18 11 C18 11.66 18 12.32 18 13 C15.73000175 13.50377768 13.45896997 14.00290019 11.1875 14.5 C9.92292969 14.7784375 8.65835938 15.056875 7.35546875 15.34375 C4 16 4 16 1 16 C1.020625 17.2375 1.04125 18.475 1.0625 19.75 C1.11170579 22.70234746 0.75397865 25.15105645 0 28 C15.06461823 28.82341859 30.07953798 29.10252291 45.16186523 28.96289062 C54.16634984 28.90570882 63.02943598 29.27881334 72 30 C72 30.33 72 30.66 72 31 C62.91668321 31.03059781 53.83335993 31.0509755 44.75 31.0625 C44.08005886 31.06335602 43.41011772 31.06421204 42.71987534 31.06509399 C20.79915818 31.0898442 -1.09411638 30.84904775 -23 30 C-23.33 30.66 -23.66 31.32 -24 32 C-24.875 29.89453125 -24.875 29.89453125 -25 27 C-23.06189954 24.63491178 -21.23986847 22.72579233 -19 20.6875 C-17.78992105 19.53568531 -16.5815749 18.38204731 -15.375 17.2265625 C-14.49714844 16.39560059 -14.49714844 16.39560059 -13.6015625 15.54785156 C-9.96374117 12.03203034 -6.69435464 8.1644915 -3.578125 4.18359375 C-2.44161202 2.74289641 -1.22755859 1.36395399 0 0 Z " fill="#F4D5E0" transform="translate(471,211)"/>
<path d="M0 0 C-5.3176906 11.45817573 -11.50000214 21.8330029 -19 32 C-19.70640625 32.97582031 -20.4128125 33.95164062 -21.140625 34.95703125 C-21.75421875 35.63121094 -22.3678125 36.30539062 -23 37 C-23.99 37 -24.98 37 -26 37 C-27.30273438 35.6105957 -27.30273438 35.6105957 -28.59375 33.67578125 C-29.06683594 32.97646484 -29.53992188 32.27714844 -30.02734375 31.55664062 C-30.51332031 30.81607422 -30.99929688 30.07550781 -31.5 29.3125 C-31.98597656 28.59126953 -32.47195313 27.87003906 -32.97265625 27.12695312 C-34.33388182 25.09624196 -35.67154344 23.05225453 -37 21 C-37.91265625 19.59814453 -37.91265625 19.59814453 -38.84375 18.16796875 C-40 16 -40 16 -40 13 C-39.0821875 12.82984375 -38.164375 12.6596875 -37.21875 12.484375 C-30.15956732 11.09033472 -24.22728639 9.54837828 -18 6 C-15.92248512 4.92616763 -13.83870453 3.8644018 -11.75 2.8125 C-10.25726562 2.04873047 -10.25726562 2.04873047 -8.734375 1.26953125 C-2.88888889 -1.44444444 -2.88888889 -1.44444444 0 0 Z " fill="#FDB551" transform="translate(581,459)"/>
<path d="M0 0 C0.66 0 1.32 0 2 0 C4.2134903 6.39452752 4.2134903 6.39452752 3.28515625 9.02734375 C1.8473082 11.23437496 0.34431022 12.63994895 -1.6875 14.3125 C-7.84698652 19.56650847 -12.71250194 23.87132471 -16.02734375 31.34765625 C-17.45788069 33.77784551 -19.40244273 34.15754899 -22 35 C-22.10957031 35.56074219 -22.21914063 36.12148438 -22.33203125 36.69921875 C-23.30885399 40.06383042 -25.61816128 42.10642837 -28 44.5625 C-29.00219735 45.62684147 -30.00215801 46.69329297 -31 47.76171875 C-31.50273438 48.29974121 -32.00546875 48.83776367 -32.5234375 49.39208984 C-34.75964414 51.82721831 -36.88554492 54.3327851 -39 56.875 C-39.70125 57.71804688 -40.4025 58.56109375 -41.125 59.4296875 C-43.11797463 62.16172355 -44.500526 64.97606076 -46 68 C-47.66666667 69.66666667 -49.33333333 71.33333333 -51 73 C-52.0650015 74.96615661 -53.06833174 76.96726926 -54 79 C-55.81344815 82.17353426 -57.75608022 85.11496029 -60 88 C-63.10753611 86.96415463 -64.02036826 86.49605741 -66 84 C-67.1875 80.8125 -67.1875 80.8125 -68 78 C-66.68 78.33 -65.36 78.66 -64 79 C-58.94896244 73.33179386 -54.10207593 67.51698592 -49.3203125 61.62060547 C-47.90863033 59.88784913 -46.48618835 58.16430889 -45.0625 56.44140625 C-38.2515242 48.16798349 -31.7096898 39.73616084 -25.37646484 31.09008789 C-21.77338274 26.20998289 -17.97305564 21.63758758 -13.90307617 17.14038086 C-11.14395395 14.03720901 -8.5966059 10.78748873 -6.0625 7.5 C-1.08139535 1.08139535 -1.08139535 1.08139535 0 0 Z " fill="#CD5048" transform="translate(579,243)"/>
<path d="M0 0 C4.90091195 -0.27227289 6.99041062 0.1176818 10.7578125 3.41015625 C18 11.00178122 18 11.00178122 18 15 C29.22 15.33 40.44 15.66 52 16 C49.16672071 20.95823876 46.62883778 24.88974112 42.9375 29.0625 C38.2773118 34.43345644 33.84530405 39.94298943 29.52905273 45.59399414 C26.20955137 49.89522432 26.20955137 49.89522432 24 51 C25.12451727 48.0280615 26.22293791 45.66559313 28 43 C27.74400251 37.62405261 27.21245624 35.24044223 24 31 C23.15077728 28.03289868 22.55127488 25.03525461 22 22 C21.34 22 20.68 22 20 22 C19.505 19.525 19.505 19.525 19 17 C18.32582031 16.97808594 17.65164063 16.95617187 16.95703125 16.93359375 C12.46101593 15.51411203 9.9055467 12.40648468 6.6875 9.0625 C6.04232422 8.41603516 5.39714844 7.76957031 4.73242188 7.10351562 C0 2.28095238 0 2.28095238 0 0 Z " fill="#FAB664" transform="translate(528,225)"/>
<path d="M0 0 C4.39522591 2.79696195 5.4663768 4.49395441 6.625 9.625 C6.98816409 13.78206976 6.19261029 16.28306927 3.75 19.75 C-0.32015073 23.43251733 -3.711719 24.45596015 -9.06640625 24.203125 C-12.93379217 23.40059053 -14.59647157 21.66240925 -17.25 18.75 C-19.55307773 15.04504888 -19.46423154 11.86520845 -18.79296875 7.6796875 C-17.74012518 3.93792689 -15.51793192 1.6681576 -12.4375 -0.5625 C-7.97714796 -1.96432493 -4.33037902 -1.66553039 0 0 Z " fill="#C1427B" transform="translate(563.25,433.25)"/>
<path d="M0 0 C1.74655836 2.28927424 3.34595784 4.55353255 4.875 7 C8.40535501 11.9840306 12.51829096 14.45036789 18 17 C16.38108711 18.07927526 14.7495258 19.14392167 13.0625 20.11328125 C8.8800343 22.54513157 5.95932942 24.38981313 4 29 C3.29329272 31.69254991 3.29329272 31.69254991 3 34 C3.66 34.33 4.32 34.66 5 35 C4.01 35 3.02 35 2 35 C1.67 36.65 1.34 38.3 1 40 C0.67 40 0.34 40 0 40 C-0.4803318 38.41701974 -0.95921612 36.83360022 -1.4375 35.25 C-1.70433594 34.36828125 -1.97117187 33.4865625 -2.24609375 32.578125 C-3 30 -3 30 -3.4375 27.83203125 C-4.4448893 24.55102026 -7.22071492 22.77779429 -10 21 C-12.63846702 19.80629499 -15.24011892 18.90409897 -18 18 C-18 17.34 -18 16.68 -18 16 C-16.046875 15.28385417 -14.09375 14.56770833 -12.140625 13.8515625 C-11.43421875 13.57054687 -10.7278125 13.28953125 -10 13 C-9.319375 12.7525 -8.63875 12.505 -7.9375 12.25 C-5.17331482 10.46665472 -4.23569098 8.27885056 -2.75 5.375 C-1.96882812 3.87066406 -1.96882812 3.87066406 -1.171875 2.3359375 C-0.78515625 1.56507813 -0.3984375 0.79421875 0 0 Z " fill="#FDBF43" transform="translate(589,168)"/>
<path d="M0 0 C-3.91669253 3.60719911 -7.82619146 6.99210137 -12.3125 9.875 C-17.90009344 13.46981536 -22.92193785 17.72873277 -28 22 C-27.67 23.32 -27.34 24.64 -27 26 C-27.94875 26.391875 -28.8975 26.78375 -29.875 27.1875 C-33.34127338 29.19793856 -33.9802693 30.22699642 -35 34 C-36.5 32.625 -36.5 32.625 -38 31 C-38 30.34 -38 29.68 -38 29 C-41.63 28.67 -45.26 28.34 -49 28 C-49.33 27.01 -49.66 26.02 -50 25 C-9.66683493 -4.83341747 -9.66683493 -4.83341747 0 0 Z " fill="#FE8943" transform="translate(465,185)"/>
<path d="M0 0 C15.51 0 31.02 0 47 0 C45.7823371 3.65298871 44.37479675 4.07984082 41.1015625 5.82421875 C38.00035402 7.55928149 35.12466648 9.6026692 32.2109375 11.6328125 C27.73111947 14.403018 24.26142882 15.24471762 19 15 C18.67 13.35 18.34 11.7 18 10 C17.41992188 10.23203125 16.83984375 10.4640625 16.2421875 10.703125 C14 11 14 11 12.0703125 9.671875 C11.42835938 9.03765625 10.78640625 8.4034375 10.125 7.75 C6.8817276 4.70715455 4.07753002 2.73295026 0 1 C0 0.67 0 0.34 0 0 Z " fill="#FB9DA7" transform="translate(496,242)"/>
<path d="M0 0 C0.66 0 1.32 0 2 0 C4.12161577 4.24323154 4.72196511 8.32573868 4 13 C1.61839963 17.76320075 -2.02884635 21.07184848 -5.796875 24.7421875 C-9.8472647 28.89311878 -13.38089056 33.47457184 -17 38 C-25.40490752 48.36840692 -25.40490752 48.36840692 -29.6875 53.1875 C-32.49573448 56.35808731 -35.03406112 59.66132004 -37.5390625 63.07421875 C-38.93665008 64.91649328 -40.40524825 66.64412303 -41.9375 68.375 C-44.30556284 71.08135754 -46.35186629 73.90223209 -48.375 76.875 C-51.86019296 81.95854767 -55.80729563 86.49148153 -60 91 C-60.99 90.67 -61.98 90.34 -63 90 C-62.29875 89.401875 -61.5975 88.80375 -60.875 88.1875 C-57.49340534 84.85366798 -55.65501647 80.75938734 -53.484375 76.5859375 C-51.73566443 73.53949961 -49.54251385 71.40126308 -47 69 C-46.74992188 68.28070313 -46.49984375 67.56140625 -46.2421875 66.8203125 C-44.48416547 62.82882851 -41.7670465 59.97806544 -38.875 56.75 C-38.00246582 55.7585498 -38.00246582 55.7585498 -37.11230469 54.74707031 C-34.56163823 51.85405151 -31.98627181 48.98482891 -29.3984375 46.125 C-28.68945312 45.34125 -27.98046875 44.5575 -27.25 43.75 C-26.63640625 43.08484375 -26.0228125 42.4196875 -25.390625 41.734375 C-23.78746959 39.94030071 -23.78746959 39.94030071 -23 37 C-22.195625 36.731875 -21.39125 36.46375 -20.5625 36.1875 C-19.716875 35.795625 -18.87125 35.40375 -18 35 C-17.71125 34.13375 -17.4225 33.2675 -17.125 32.375 C-15.51863081 27.55589243 -12.47119209 24.6262162 -9 21 C-8.28457031 20.24460937 -7.56914063 19.48921875 -6.83203125 18.7109375 C-2.81085998 14.56524908 -2.81085998 14.56524908 -1 13 C-0.34 13 0.32 13 1 13 C2.0502717 9.0323069 1.99716532 5.98866127 1 2 C0.34 1.67 -0.32 1.34 -1 1 C-0.67 0.67 -0.34 0.34 0 0 Z " fill="#EB5B50" transform="translate(580,241)"/>
<path d="M0 0 C0.33 0 0.66 0 1 0 C1.05451714 2.04136395 1.09302485 4.08315856 1.125 6.125 C1.14820313 7.26195312 1.17140625 8.39890625 1.1953125 9.5703125 C0.53076791 21.23971551 -7.91209552 34.84904551 -15 44 C-12.69 44.99 -10.38 45.98 -8 47 C-8.60448975 47.26047119 -9.20897949 47.52094238 -9.83178711 47.78930664 C-12.17356743 49.09691711 -13.16297856 50.19594478 -14.69140625 52.37109375 C-15.16126953 53.02787109 -15.63113281 53.68464844 -16.11523438 54.36132812 C-16.59283203 55.04646484 -17.07042969 55.73160156 -17.5625 56.4375 C-18.51977411 57.79203645 -19.47933547 59.14495996 -20.44140625 60.49609375 C-20.86107666 61.09607178 -21.28074707 61.6960498 -21.71313477 62.31420898 C-23.02387084 64.03127076 -24.44008343 65.50885731 -26 67 C-41.66632277 50.59852616 -41.66632277 50.59852616 -44 45 C-43.69866787 43.65907202 -43.36756251 42.32430612 -43 41 C-45.21485449 37.63670244 -47.67849133 35.25388088 -51 33 C-50.01 33 -49.02 33 -48 33 C-47.67 32.01 -47.34 31.02 -47 30 C-46.484375 30.928125 -45.96875 31.85625 -45.4375 32.8125 C-41.11830401 40.35201526 -36.4819805 47.6401237 -31.06640625 54.44140625 C-30 56 -30 56 -30 58 C-26.69066977 56.60879958 -25.07966921 55.15066 -23.046875 52.2109375 C-22.51376709 51.44201172 -21.98065918 50.67308594 -21.43139648 49.88085938 C-20.87653564 49.05392578 -20.3216748 48.22699219 -19.75 47.375 C-19.17515869 46.52486328 -18.60031738 45.67472656 -18.00805664 44.79882812 C-9.07535676 31.34144793 -0.71304745 16.43574379 0 0 Z " fill="#C25199" transform="translate(585,438)"/>
<path d="M0 0 C11.88 0 23.76 0 36 0 C36 0.33 36 0.66 36 1 C31.05 1 26.1 1 21 1 C21.04125 2.36125 21.0825 3.7225 21.125 5.125 C21.14430755 11.84402636 20.06816161 18.38121289 19 25 C15.21997635 21.32306791 11.7602886 17.47845577 8.375 13.4375 C7.89804687 12.87353516 7.42109375 12.30957031 6.9296875 11.72851562 C5.60957928 10.16088711 4.30424949 8.58084729 3 7 C2.09121094 5.90365234 2.09121094 5.90365234 1.1640625 4.78515625 C0 3 0 3 0 0 Z " fill="#84C1F8" transform="translate(448,241)"/>
<path d="M0 0 C4.95 0 9.9 0 15 0 C17 5 17 5 17 8 C17.66 8 18.32 8 19 8 C21.37113483 12.96284034 23.43174347 17.45949887 24 23 C18.40578158 22.45826739 14.20556598 21.935799 10.5 17.4375 C10.0565625 16.81746094 9.613125 16.19742187 9.15625 15.55859375 C8.06725183 13.84533909 8.06725183 13.84533909 6 13 C6 12.34 6 11.68 6 11 C5.195625 10.690625 4.39125 10.38125 3.5625 10.0625 C1 9 1 9 0 8 C-0.14115161 5.32941149 -0.04247107 2.67567762 0 0 Z " fill="#31BCE4" transform="translate(469,242)"/>
<path d="M0 0 C13.53 0 27.06 0 41 0 C27.79180328 13.20819672 27.79180328 13.20819672 20 14 C16.10821089 12.31220472 13.18218045 9.76572059 10 7 C8.69916491 6.04638029 7.38804158 5.1064679 6.0625 4.1875 C5.051875 3.465625 4.04125 2.74375 3 2 C2.01 1.34 1.02 0.68 0 0 Z " fill="#FDC09A" transform="translate(514,210)"/>
<path d="M0 0 C13.2 0 26.4 0 40 0 C36.20106037 3.0391517 32.61751638 5.59484391 28.5 8.125 C27.3965625 8.80820313 26.293125 9.49140625 25.15625 10.1953125 C22.46802389 11.73239228 19.90456452 12.94872105 17 14 C17 13.34 17 12.68 17 12 C16.27296875 11.73058594 15.5459375 11.46117187 14.796875 11.18359375 C12.05588448 10.02364944 9.73134626 8.69868973 7.25 7.0625 C6.47140625 6.55847656 5.6928125 6.05445313 4.890625 5.53515625 C3 4 3 4 2 1 C1.34 0.67 0.68 0.34 0 0 Z " fill="#FAB2A7" transform="translate(472,210)"/>
<path d="M0 0 C4.97607423 2.18341448 8.04181045 5.9552767 11.6875 9.875 C12.37650391 10.59558594 13.06550781 11.31617188 13.77539062 12.05859375 C14.43087891 12.75855469 15.08636719 13.45851562 15.76171875 14.1796875 C16.658302 15.13464111 16.658302 15.13464111 17.57299805 16.10888672 C19.0759721 18.1006809 19.58784428 19.56087668 20 22 C12.81888157 21.5935216 7.41293383 19.13435747 1 16 C-3.63624239 13.78540655 -7.84555982 12.52596328 -13 12 C-9.7498074 8.61438271 -6.25061222 5.55850818 -2.70703125 2.48828125 C-1.7832102 1.68284459 -0.86665262 0.86665262 0 0 Z " fill="#FDEAC0" transform="translate(553,211)"/>
<path d="M0 0 C-6.39962388 10.85237424 -6.39962388 10.85237424 -11 14 C-16.12081546 14.76708572 -20.86815317 14.54124947 -26 14 C-25.34 9.71 -24.68 5.42 -24 1 C-21.1296553 0.24480449 -18.2569615 -0.47929706 -15.375 -1.1875 C-14.16263672 -1.51137695 -14.16263672 -1.51137695 -12.92578125 -1.84179688 C-7.60905576 -3.11694648 -4.77000769 -3.18772358 0 0 Z " fill="#E27FBB" transform="translate(496,226)"/>
<path d="M0 0 C2 2 2 2 3.1875 4.3125 C5.61451249 7.91117369 8.38692626 9.61400791 12 12 C10.16223173 13.95028469 8.88813118 15.05457016 6.4375 16.25 C3.082495 18.65872153 2.81800884 21.05868466 2 25 C1.34 25 0.68 25 0 25 C-0.6496875 23.6078125 -0.6496875 23.6078125 -1.3125 22.1875 C-3.86276622 17.37033047 -5.86706216 15.80346465 -11 14 C-10.2575 13.4225 -9.515 12.845 -8.75 12.25 C-4.06315731 8.41531053 -1.62610962 5.96240195 0 0 Z " fill="#EFB2CF" transform="translate(421,238)"/>
<path d="M0 0 C0.04125 1.093125 0.0825 2.18625 0.125 3.3125 C0.60565398 7.24996333 0.60565398 7.24996333 4.0625 8.9375 C5.031875 9.288125 6.00125 9.63875 7 10 C7 10.66 7 11.32 7 12 C6.05125 12.391875 5.1025 12.78375 4.125 13.1875 C0.65872662 15.19793856 0.0197307 16.22699642 -1 20 C-2.5 18.625 -2.5 18.625 -4 17 C-4 16.34 -4 15.68 -4 15 C-7.63 14.67 -11.26 14.34 -15 14 C-15.33 13.01 -15.66 12.02 -16 11 C-13.52365012 9.16283711 -11.04346678 7.33092199 -8.5625 5.5 C-7.50192383 4.71302734 -7.50192383 4.71302734 -6.41992188 3.91015625 C-5.74638672 3.41386719 -5.07285156 2.91757813 -4.37890625 2.40625 C-3.7557251 1.94541016 -3.13254395 1.48457031 -2.49047852 1.00976562 C-1 0 -1 0 0 0 Z " fill="#FDBE6F" transform="translate(431,199)"/>
<path d="M0 0 C0.56074219 0.29132813 1.12148438 0.58265625 1.69921875 0.8828125 C1.33040519 7.02970523 -0.20128554 9.57308624 -4.30078125 13.8828125 C-7.71478228 10.56922326 -10.79949198 7.14896614 -13.7734375 3.43359375 C-15.47194564 1.70902154 -17.09471247 0.84589199 -19.30078125 -0.1171875 C-12.28882635 -5.45237058 -7.56374134 -3.67271651 0 0 Z " fill="#FEDC8B" transform="translate(551.30078125,225.1171875)"/>
<path d="M0 0 C0.66 0.33 1.32 0.66 2 1 C0.43387807 4.84411747 -2.02094121 7.15950209 -5 10 C-8.91473058 13.81435287 -12.4914429 17.81625666 -16 22 C-16 16.74110042 -13.41078438 13.23914211 -9.86328125 9.5703125 C-8.68732035 8.41406044 -7.50353941 7.2657138 -6.3125 6.125 C-5.70599609 5.53203125 -5.09949219 4.9390625 -4.47460938 4.328125 C-2.98985215 2.87844078 -1.49585009 1.43823532 0 0 Z M-19 22 C-18.34 22.33 -17.68 22.66 -17 23 C-19.97 26.3 -22.94 29.6 -26 33 C-26 30 -26 30 -24.5625 28.5 C-24.046875 28.005 -23.53125 27.51 -23 27 C-22.67 26.01 -22.34 25.02 -22 24 C-21.01 23.34 -20.02 22.68 -19 22 Z M-29 34 C-29 37.46596742 -29.42578863 37.85844751 -31.625 40.35546875 C-32.43710937 41.28842773 -32.43710937 41.28842773 -33.265625 42.24023438 C-33.83796875 42.88283203 -34.4103125 43.52542969 -35 44.1875 C-35.85851562 45.16879883 -35.85851562 45.16879883 -36.734375 46.16992188 C-38.14967898 47.78572725 -39.57399918 49.39362706 -41 51 C-41.66 50.67 -42.32 50.34 -43 50 C-41.04266995 47.70746969 -39.08418394 45.41594507 -37.125 43.125 C-36.56941406 42.47402344 -36.01382813 41.82304687 -35.44140625 41.15234375 C-34.90644531 40.52714844 -34.37148438 39.90195312 -33.8203125 39.2578125 C-33.32805176 38.6817627 -32.83579102 38.10571289 -32.32861328 37.51220703 C-31.26399715 36.30047746 -30.14054725 35.14054725 -29 34 Z M-44 51 C-43.1875 52.625 -43.1875 52.625 -43 55 C-44.15536467 56.48546886 -45.32658196 57.96349229 -46.6015625 59.34765625 C-48.05501733 61.06500651 -49.02702001 62.7577365 -50.0625 64.75 C-52.02858025 68.04794107 -52.66853356 68.58707037 -56 70 C-53.18938822 64.51033698 -50.45038255 60.33010194 -46 56 C-44.680982 53.33466965 -44.680982 53.33466965 -44 51 Z " fill="#DD574D" transform="translate(579,254)"/>
<path d="M0 0 C14.52 0 29.04 0 44 0 C44 0.33 44 0.66 44 1 C43.41508789 1.00410889 42.83017578 1.00821777 42.22753906 1.01245117 C39.56734434 1.04542661 36.90942845 1.11606907 34.25 1.1875 C33.32960938 1.19330078 32.40921875 1.19910156 31.4609375 1.20507812 C25.89728767 1.2984248 25.89728767 1.2984248 21.46875 4.40625 C20.74171875 5.69015625 20.74171875 5.69015625 20 7 C19.4225 7.763125 18.845 8.52625 18.25 9.3125 C17.8375 9.869375 17.425 10.42625 17 11 C13.11125515 10.41353036 10.91655358 8.5472913 7.9375 6.0625 C5.33172498 3.90342927 2.8181712 1.8787808 0 0 Z " fill="#FCBAB2" transform="translate(496,242)"/>
<path d="M0 0 C0.66 0 1.32 0 2 0 C2.37125 0.928125 2.7425 1.85625 3.125 2.8125 C5.30942959 6.5260303 7.06718759 7.42687504 11 9 C11 9.66 11 10.32 11 11 C10.2575 11.4125 9.515 11.825 8.75 12.25 C5.45645777 14.34589051 4.09225516 16.75339716 2 20 C1.34 20 0.68 20 0 20 C-0.598125 19.071875 -1.19625 18.14375 -1.8125 17.1875 C-4.02761293 13.95976402 -5.65800576 12.85666346 -9 11 C-9 10.34 -9 9.68 -9 9 C-8.05125 8.54625 -7.1025 8.0925 -6.125 7.625 C-2.99686321 6.19761746 -2.99686321 6.19761746 -1 4 C-0.3574765 1.93125966 -0.3574765 1.93125966 0 0 Z " fill="#EB5998" transform="translate(615,193)"/>
<path d="M0 0 C11.88 0 23.76 0 36 0 C36 0.33 36 0.66 36 1 C31.05 1 26.1 1 21 1 C21 3.31 21 5.62 21 8 C20.25234375 7.72285156 19.5046875 7.44570312 18.734375 7.16015625 C17.74953125 6.79792969 16.7646875 6.43570313 15.75 6.0625 C14.77546875 5.70285156 13.8009375 5.34320313 12.796875 4.97265625 C10.53542839 4.18620345 8.33203448 3.52748399 6 3 C6 3.99 6 4.98 6 6 C5.34 6 4.68 6 4 6 C4 5.34 4 4.68 4 4 C2.68 3.67 1.36 3.34 0 3 C0 2.01 0 1.02 0 0 Z " fill="#7BB8F3" transform="translate(448,241)"/>
<path d="M0 0 C3.03997403 2.47701587 4.57130342 5.00946432 6.1875 8.5 C8.82824207 14.08043606 12.40319589 18.71595435 16.20703125 23.53125 C18 26 18 26 18 28 C18.99 28.33 19.98 28.66 21 29 C17.63096802 28.93261936 14.98246867 28.83683214 12.33984375 26.5859375 C10.78791287 24.78395127 9.38054494 22.93593658 8 21 C7.35804688 20.18015625 7.35804688 20.18015625 6.703125 19.34375 C5.5625 17.8125 5.5625 17.8125 4 15 C4.32380126 13.66431979 4.65657551 12.33076989 5 11 C2.78514551 7.63670244 0.32150867 5.25388088 -3 3 C-2.01 3 -1.02 3 0 3 C0 2.01 0 1.02 0 0 Z " fill="#CC5B98" transform="translate(537,468)"/>
<path d="M0 0 C4.90091195 -0.27227289 6.99041062 0.1176818 10.7578125 3.41015625 C18 11.00178122 18 11.00178122 18 15 C15.92578125 15.3984375 15.92578125 15.3984375 13 15 C10.45072773 13.14584507 8.34939337 10.90981038 6.1875 8.625 C5.2912793 7.72007812 5.2912793 7.72007812 4.37695312 6.796875 C0 2.29486607 0 2.29486607 0 0 Z " fill="#FD9664" transform="translate(528,225)"/>
<path d="M0 0 C4.15000506 1.48599439 7.63036482 3.52320624 11.3125 5.9375 C12.38113281 6.62714844 13.44976563 7.31679687 14.55078125 8.02734375 C15.76314453 9.00380859 15.76314453 9.00380859 17 10 C17 10.99 17 11.98 17 13 C13.7 12.67 10.4 12.34 7 12 C6.67 10.02 6.34 8.04 6 6 C5.01 6 4.02 6 3 6 C3 5.34 3 4.68 3 4 C2.34 4 1.68 4 1 4 C0.67 2.68 0.34 1.36 0 0 Z " fill="#F65786" transform="translate(516,212)"/>
<path d="M0 0 C0.66 0 1.32 0 2 0 C2.28875 0.969375 2.5775 1.93875 2.875 2.9375 C3.64214682 6.10664203 3.64214682 6.10664203 6 7 C6 7.66 6 8.32 6 9 C5.01 9.66 4.02 10.32 3 11 C2.27034634 13.56282742 2.27034634 13.56282742 2 16 C1.34 16 0.68 16 0 16 C-0.0928125 15.1028125 -0.0928125 15.1028125 -0.1875 14.1875 C-1.31851737 11.14245324 -3.24324095 10.55509485 -6 9 C-6 8.34 -6 7.68 -6 7 C-5.38125 6.95875 -4.7625 6.9175 -4.125 6.875 C-3.42375 6.58625 -2.7225 6.2975 -2 6 C-0.6954344 3.00384054 -0.6954344 3.00384054 0 0 Z " fill="#F9A996" transform="translate(592,255)"/>
<path d="M0 0 C6.62734775 1.6789281 10.64805383 3.64375856 15 9 C15 9.99 15 10.98 15 12 C10.79857233 10.50917083 7.04543468 8.41404259 3.18359375 6.21875 C1.14881829 5.08306137 -0.90761898 4.02483968 -3 3 C-2.01 3 -1.02 3 0 3 C0 2.01 0 1.02 0 0 Z " fill="#FEEEE1" transform="translate(572,186)"/>
<path d="M0 0 C0.33 0 0.66 0 1 0 C1.05451714 2.04136395 1.09302485 4.08315856 1.125 6.125 C1.14820313 7.26195312 1.17140625 8.39890625 1.1953125 9.5703125 C0.74671034 17.44776646 -3.43189721 24.12875256 -7 31 C-7.43828125 31.85851562 -7.8765625 32.71703125 -8.328125 33.6015625 C-10.73290156 38.15237384 -13.14044169 41.58153407 -17 45 C-15.59005427 41.17994999 -13.80054944 37.85145828 -11.6875 34.375 C-5.11147931 23.23686496 -0.98924255 12.93825131 0 0 Z " fill="#B35B7F" transform="translate(585,438)"/>
<path d="M0 0 C-4.26041226 3.76354036 -8.51848911 7.49881962 -13 11 C-12.67 7.7 -12.34 4.4 -12 1 C-10.576875 0.649375 -9.15375 0.29875 -7.6875 -0.0625 C-6.88699219 -0.25972656 -6.08648437 -0.45695313 -5.26171875 -0.66015625 C-3 -1 -3 -1 0 0 Z " fill="#E990C2" transform="translate(484,226)"/>
<path d="M0 0 C3.88192126 3.76774711 7.79531881 7.62797789 11 12 C11 12.66 11 13.32 11 14 C10.34 14 9.68 14 9 14 C8.67 14.66 8.34 15.32 8 16 C3.61596344 12.20840082 1.45050343 8.63691577 0 3 C0 2.01 0 1.02 0 0 Z " fill="#C95351" transform="translate(492,297)"/>
<path d="M0 0 C5.28 0 10.56 0 16 0 C16 2.31 16 4.62 16 7 C10.72 5.02 5.44 3.04 0 1 C0 0.67 0 0.34 0 0 Z " fill="#54B1F8" transform="translate(453,242)"/>
<path d="M0 0 C0.33 0 0.66 0 1 0 C1.19389096 2.4788213 1.38040123 4.95780931 1.5625 7.4375 C1.61857422 8.14455078 1.67464844 8.85160156 1.73242188 9.58007812 C1.86190993 11.38427837 1.93521608 13.19231952 2 15 C1.67 15.33 1.34 15.66 1 16 C0.84313751 17.55948542 0.74923361 19.12542668 0.68359375 20.69140625 C0.64169922 21.63564453 0.59980469 22.57988281 0.55664062 23.55273438 C0.51732422 24.54595703 0.47800781 25.53917969 0.4375 26.5625 C0.39431641 27.55958984 0.35113281 28.55667969 0.30664062 29.58398438 C0.20019702 32.0558415 0.09818072 34.5278031 0 37 C-0.33 37 -0.66 37 -1 37 C-1.02953391 33.08334973 -1.04697503 29.16672887 -1.0625 25.25 C-1.07087891 24.15816406 -1.07925781 23.06632813 -1.08789062 21.94140625 C-1.10968394 14.5752663 -0.7350759 7.32921225 0 0 Z " fill="#EE7A89" transform="translate(672,678)"/>
<path d="M0 0 C0.66 0.33 1.32 0.66 2 1 C1.38511719 1.67095703 1.38511719 1.67095703 0.7578125 2.35546875 C-3.37239664 6.98960293 -5.64496761 10.90235424 -7 17 C-6.01 17.66 -5.02 18.32 -4 19 C-4 19.66 -4 20.32 -4 21 C-7.875 19.125 -7.875 19.125 -9 18 C-9.4931372 13.06862797 -8.57373997 10.67362951 -5.625 6.75 C-4.99851562 5.89921875 -4.37203125 5.0484375 -3.7265625 4.171875 C-2 2 -2 2 0 0 Z " fill="#C8518F" transform="translate(675,746)"/>
<path d="M0 0 C2.63822024 3.10378852 3.70365731 5.81462924 4.6875 9.75 C5.06455078 11.22726562 5.06455078 11.22726562 5.44921875 12.734375 C5.63097656 13.48203125 5.81273437 14.2296875 6 15 C2.06451569 11.93906776 -0.68116787 9.50884026 -3 5 C-2.34 5 -1.68 5 -1 5 C-0.67 3.35 -0.34 1.7 0 0 Z " fill="#87B6CB" transform="translate(508,308)"/>
<path d="M0 0 C1.31223496 3.93670488 0.24296256 6.12488144 -1 10 C-0.34 10.33 0.32 10.66 1 11 C-0.65 12.98 -2.3 14.96 -4 17 C-5.6852084 12.92320841 -4.16939007 10.16924407 -2.5625 6.25 C-2.08941406 5.07953125 -1.61632812 3.9090625 -1.12890625 2.703125 C-0.75636719 1.81109375 -0.38382813 0.9190625 0 0 Z " fill="#FC695F" transform="translate(520,305)"/>
<path d="M0 0 C3.13506611 0.33589994 4.025249 1.02665172 6.25 3.375 C8 6 8 6 8 9 C4.68765616 7.83620352 2.1101781 6.88761214 0 4 C0 2.68 0 1.36 0 0 Z " fill="#FD9D56" transform="translate(538,231)"/>
<path d="M0 0 C0.66 0 1.32 0 2 0 C2.33 0.99 2.66 1.98 3 3 C3.66 2.34 4.32 1.68 5 1 C6 2 6 2 6.0625 5.5625 C6.041875 6.696875 6.02125 7.83125 6 9 C2.83282717 7.41641358 1.26731682 6.54736301 -0.3125 3.3125 C-0.539375 2.549375 -0.76625 1.78625 -1 1 C-0.67 0.67 -0.34 0.34 0 0 Z " fill="#58D2E3" transform="translate(502,305)"/>
<path d="M0 0 C0.66 0.33 1.32 0.66 2 1 C-2.29 6.28 -6.58 11.56 -11 17 C-11 13.1851331 -9.93722595 11.27324384 -8 8 C-6.37373596 6.61767557 -4.7074998 5.28062485 -3 4 C-1.23676495 1.87396815 -1.23676495 1.87396815 0 0 Z " fill="#F98F62" transform="translate(546,282)"/>
<path d="M0 0 C-0.55704728 3.23087421 -1.33187535 5.02361137 -4 7 C-5.32 7 -6.64 7 -8 7 C-8.33 6.01 -8.66 5.02 -9 4 C-4.5 0 -4.5 0 0 0 Z " fill="#FB9541" transform="translate(424,206)"/>
<path d="M0 0 C0.33 0.66 0.66 1.32 1 2 C1.99 2.33 2.98 2.66 4 3 C2.75160427 4.41808059 1.50120779 5.83439995 0.25 7.25 C-0.79414062 8.43335938 -0.79414062 8.43335938 -1.859375 9.640625 C-3.84586916 11.83011856 -5.89101308 13.92901285 -8 16 C-6.91761487 12.65444595 -5.75539112 10.71362863 -3.4375 8 C-1.07053193 5.08680853 -0.32267623 3.65699731 0 0 Z " fill="#F5A56A" transform="translate(560,260)"/>
<path d="M0 0 C0.33 0.66 0.66 1.32 1 2 C-1.35695528 7.89238821 -5.30834287 12.88225066 -9 18 C-9 13.92997939 -7.07401475 11.27910188 -5.0625 7.875 C-4.68931641 7.22917969 -4.31613281 6.58335937 -3.93164062 5.91796875 C-1.16870301 1.16870301 -1.16870301 1.16870301 0 0 Z " fill="#9F587B" transform="translate(578,465)"/>
<path d="M0 0 C0.33 0 0.66 0 1 0 C1.375 2.1875 1.375 2.1875 1 5 C-1.875 7.625 -1.875 7.625 -5 10 C-5.99 11.485 -5.99 11.485 -7 13 C-7.66 12.67 -8.32 12.34 -9 12 C-7.52464063 9.99708788 -6.04497707 7.99763223 -4.5625 6 C-4.14162109 5.42765625 -3.72074219 4.8553125 -3.28710938 4.265625 C-2.21555864 2.82546081 -1.11033324 1.41048004 0 0 Z " fill="#CD6086" transform="translate(567,483)"/>
<path d="M0 0 C0.66 0.33 1.32 0.66 2 1 C1 4 0 7 -1 10 C-3.31 9.67 -5.62 9.34 -8 9 C-6 8 -4 7 -2 6 C-1.67 5.01 -1.34 4.02 -1 3 C-1.66 2.67 -2.32 2.34 -3 2 C-2.01 1.34 -1.02 0.68 0 0 Z " fill="#FDAF5A" transform="translate(425,203)"/>
<path d="M0 0 C3.32643967 2.98232523 5.29152862 5.86370087 7 10 C6.67 10.66 6.34 11.32 6 12 C4.88625 10.6078125 4.88625 10.6078125 3.75 9.1875 C1.70974439 6.72873042 -0.32471323 4.78352451 -3 3 C-2.01 3 -1.02 3 0 3 C0 2.01 0 1.02 0 0 Z " fill="#D16987" transform="translate(537,468)"/>
<path d="M0 0 C0 0.66 0 1.32 0 2 C-1.1446875 2.2784375 -1.1446875 2.2784375 -2.3125 2.5625 C-6.18615728 4.63445622 -6.56545263 6.92286538 -8 11 C-8.33 11 -8.66 11 -9 11 C-9.25 7.6875 -9.25 7.6875 -9 4 C-6.45240232 1.36455413 -3.73944872 0 0 0 Z " fill="#FB7659" transform="translate(579,623)"/>
<path d="M0 0 C-1.375 2.5 -1.375 2.5 -3 5 C-3.66 5 -4.32 5 -5 5 C-5 4.34 -5 3.68 -5 3 C-7.31 3.33 -9.62 3.66 -12 4 C-11 2 -11 2 -9.00390625 1.11328125 C-7.79541016 0.71689453 -7.79541016 0.71689453 -6.5625 0.3125 C-5.75941406 0.04050781 -4.95632813 -0.23148437 -4.12890625 -0.51171875 C-2 -1 -2 -1 0 0 Z " fill="#FBC569" transform="translate(581,459)"/>
<path d="M0 0 C2.475 0.495 2.475 0.495 5 1 C4.67 2.98 4.34 4.96 4 7 C3.01 7 2.02 7 1 7 C0.67 4.69 0.34 2.38 0 0 Z " fill="#F6B4AB" transform="translate(583,271)"/>
<path d="M0 0 C3.465 1.98 3.465 1.98 7 4 C7 4.99 7 5.98 7 7 C5.02 7 3.04 7 1 7 C1.66 5.68 2.32 4.36 3 3 C2.01 2.67 1.02 2.34 0 2 C0 1.34 0 0.68 0 0 Z " fill="#F9747F" transform="translate(526,218)"/>
<path d="M0 0 C0.66 0.33 1.32 0.66 2 1 C1.030625 1.845625 0.06125 2.69125 -0.9375 3.5625 C-4.20125576 6.78017921 -4.81523971 9.38099287 -5 14 C-5.33 14 -5.66 14 -6 14 C-6.61514196 6.74132492 -6.61514196 6.74132492 -3.5625 3.0625 C-2.716875 2.381875 -1.87125 1.70125 -1 1 C-0.67 0.67 -0.34 0.34 0 0 Z " fill="#FDD7C8" transform="translate(313,627)"/>
<path d="M0 0 C4.875 4.75 4.875 4.75 6 7 C5.34 7 4.68 7 4 7 C3.67 8.32 3.34 9.64 3 11 C2.49384702 9.73160474 1.99530901 8.46016898 1.5 7.1875 C1.2215625 6.47980469 0.943125 5.77210938 0.65625 5.04296875 C0 3 0 3 0 0 Z " fill="#CE605B" transform="translate(492,297)"/>
<path d="M0 0 C0.33 0 0.66 0 1 0 C0.67 3.3 0.34 6.6 0 10 C-1.32 8.68 -2.64 7.36 -4 6 C-3.34 5.67 -2.68 5.34 -2 5 C-1.27840576 3.35636866 -0.60648579 1.68949614 0 0 Z " fill="#98D3EE" transform="translate(467,256)"/>
<path d="M0 0 C0.66 0.33 1.32 0.66 2 1 C0.7934375 2.11375 0.7934375 2.11375 -0.4375 3.25 C-2.76988591 5.75304829 -3.63534394 6.7180955 -4 10 C-4.99 9.67 -5.98 9.34 -7 9 C-5.44499019 5.18315774 -2.96404505 2.80804268 0 0 Z " fill="#FC7F4F" transform="translate(435,211)"/>
<path d="M0 0 C0.99 0.33 1.98 0.66 3 1 C4.1875 4.0625 4.1875 4.0625 5 7 C3.68 6.67 2.36 6.34 1 6 C0.67 4.02 0.34 2.04 0 0 Z " fill="#40BED4" transform="translate(488,256)"/>
<path d="M0 0 C0.66 0 1.32 0 2 0 C2 1.65 2 3.3 2 5 C0.02 5 -1.96 5 -4 5 C-2.71937515 3.2925002 -1.38232443 1.62626404 0 0 Z " fill="#F59696" transform="translate(511,254)"/>
<path d="M0 0 C0.33 0.99 0.66 1.98 1 3 C1.66 3.33 2.32 3.66 3 4 C2.01 4 1.02 4 0 4 C-0.33 5.65 -0.66 7.3 -1 9 C-1.33 9 -1.66 9 -2 9 C-2.33 6.69 -2.66 4.38 -3 2 C-2.01 2 -1.02 2 0 2 C0 1.34 0 0.68 0 0 Z " fill="#FDB676" transform="translate(591,199)"/>
<path d="M0 0 C0.33 0 0.66 0 1 0 C1 1.98 1 3.96 1 6 C0.01 6 -0.98 6 -2 6 C-4.15028304 6.94978897 -4.15028304 6.94978897 -6 8 C-5.02471263 6.66382648 -4.04466681 5.3311249 -3.0625 4 C-2.24458984 2.88625 -2.24458984 2.88625 -1.41015625 1.75 C-0.94480469 1.1725 -0.47945312 0.595 0 0 Z " fill="#FAD5D9" transform="translate(723,717)"/>
<path d="M0 0 C0.66 0 1.32 0 2 0 C0.44499019 3.81684226 -2.03595495 6.19195732 -5 9 C-5.66 8.67 -6.32 8.34 -7 8 C-5.88200014 6.66079162 -4.75538103 5.32877444 -3.625 4 C-2.68527344 2.88625 -2.68527344 2.88625 -1.7265625 1.75 C-1.15679687 1.1725 -0.58703125 0.595 0 0 Z " fill="#FBD8D3" transform="translate(471,211)"/>
<path d="M0 0 C1.32 0 2.64 0 4 0 C4.33 1.98 4.66 3.96 5 6 C3.2925002 4.71937515 1.62626404 3.38232443 0 2 C0 1.34 0 0.68 0 0 Z " fill="#FD937E" transform="translate(528,225)"/>
<path d="M0 0 C0.66 0.33 1.32 0.66 2 1 C0.35 2.65 -1.3 4.3 -3 6 C-3.99 5.67 -4.98 5.34 -6 5 C-6 4.34 -6 3.68 -6 3 C-4.03533587 1.93224776 -2.03144641 0.93446535 0 0 Z " fill="#EC6BA2" transform="translate(612,199)"/>
<path d="M0 0 C0.33 0.99 0.66 1.98 1 3 C-0.65 4.65 -2.3 6.3 -4 8 C-4.66 7.67 -5.32 7.34 -6 7 C-4.02 4.69 -2.04 2.38 0 0 Z " fill="#E1C4CD" transform="translate(545,552)"/>
<path d="M0 0 C2.97 0.99 5.94 1.98 9 3 C9 3.33 9 3.66 9 4 C2.25 3.125 2.25 3.125 0 2 C0 1.34 0 0.68 0 0 Z " fill="#D3639E" transform="translate(525,467)"/>
<path d="M0 0 C-3.96 1.98 -3.96 1.98 -8 4 C-7.67 2.68 -7.34 1.36 -7 0 C-4 -1 -4 -1 0 0 Z " fill="#FAAEB9" transform="translate(512,211)"/>
</svg>
